<?xml version="1.0" standalone="no"?><!DOCTYPE svg PUBLIC "-//W3C//DTD SVG 1.1//EN" "http://www.w3.org/Graphics/SVG/1.1/DTD/svg11.dtd"><svg t="1660560607420" class="icon" viewBox="0 0 1024 1024" version="1.1" xmlns="http://www.w3.org/2000/svg" p-id="11313" xmlns:xlink="http://www.w3.org/1999/xlink" width="16" height="16"><defs><style type="text/css">@font-face { font-family: feedback-iconfont; src: url("//at.alicdn.com/t/font_1031158_u69w8yhxdu.woff2?t=1630033759944") format("woff2"), url("//at.alicdn.com/t/font_1031158_u69w8yhxdu.woff?t=1630033759944") format("woff"), url("//at.alicdn.com/t/font_1031158_u69w8yhxdu.ttf?t=1630033759944") format("truetype"); }
</style></defs><path d="M512 0c282.714286 0 512 229.285714 512 512 0 282.714286-229.285714 512-512 512C229.285714 1024 0 794.714286 0 512 0 229.285714 229.285714 0 512 0z m142.142857 318.142857l-142.142857 142.142857-142.142857-142.142857c-14.285714-14.285714-37.428571-14.285714-51.714286 0-14.285714 14.285714-14.285714 37.428571 0 51.714286l142.142857 142.142857-142.142857 142.142857c-14.285714 14.285714-14.285714 37.428571 0 51.714286 14.285714 14.285714 37.428571 14.285714 51.714286 0l142.142857-142.142857 142.142857 142.142857c14.285714 14.285714 37.428571 14.285714 51.714286 0 14.285714-14.285714 14.285714-37.428571 0-51.714286l-142.142857-142.142857 142.142857-142.142857c14.285714-14.285714 14.285714-37.428571 0-51.714286-14.285714-14.285714-37.428571-14.285714-51.714286 0z m0 0" fill="#333333" p-id="11314"></path></svg>