<?xml version="1.0" standalone="no"?><!DOCTYPE svg PUBLIC "-//W3C//DTD SVG 1.1//EN" "http://www.w3.org/Graphics/SVG/1.1/DTD/svg11.dtd"><svg t="1629188011104" class="icon" viewBox="0 0 1024 1024" version="1.1" xmlns="http://www.w3.org/2000/svg" p-id="3044" width="16" height="16" xmlns:xlink="http://www.w3.org/1999/xlink"><defs><style type="text/css"></style></defs><path d="M444.558726 561.677381l-90.280564-90.280565c-24.91559-24.91559-65.364974-24.91559-90.126765 0-24.91559 24.91559-24.91559 65.364974 0 90.280565l135.497747 135.497747c24.91559 24.91559 65.364974 24.91559 90.280565 0l270.687894-270.841695c24.91559-24.91559 24.91559-65.364974 0-90.280564s-65.364974-24.91559-90.280565 0L444.558726 561.677381z m66.902974 460.78462C229.39261 1022.462001 0.6921 793.91529 0.6921 511.6924S229.39261 1.0766 511.4617 1.0766s510.7696 228.546711 510.769601 510.6158-228.854311 510.7696-510.769601 510.769601z" p-id="3045" fill="#40210F"></path></svg>