<?xml version="1.0" standalone="no"?><!DOCTYPE svg PUBLIC "-//W3C//DTD SVG 1.1//EN" "http://www.w3.org/Graphics/SVG/1.1/DTD/svg11.dtd"><svg t="1629188214922" class="icon" viewBox="0 0 1226 1024" version="1.1" xmlns="http://www.w3.org/2000/svg" p-id="5421" width="19.15625" height="16" xmlns:xlink="http://www.w3.org/1999/xlink"><defs><style type="text/css"></style></defs><path d="M177.713194 1023.832029H143.279163C65.844586 1023.832029 0 960.842948 0 880.552866V493.547953c0-77.434577 62.989081-143.279163 143.279163-143.279162h37.289536c77.434577 0 143.279163 63.157052 143.279162 143.279162v387.004913c-2.855505 77.434577-65.844586 143.279163-146.134667 143.279163zM143.279163 439.125388c-31.578526 0-57.278071 25.867516-57.278071 57.27807v387.004913c0 31.578526 25.867516 57.278071 57.278071 57.278071h37.289536c31.578526 0 57.278071-25.867516 57.27807-57.278071V493.547953c0-31.578526-25.867516-57.278071-57.27807-57.27807H143.279163v2.855505z" fill="#00CE9B" p-id="5422"></path><path d="M1172.436759 413.257872c-34.434031-37.289536-83.145587-57.278071-134.712648-57.278071l-209.291719-2.855505c11.42202-34.434031 19.988535-83.145587 14.277525-134.712648C828.432392 83.699 727.985804-8.013101 650.719198 0.553414c-40.145041 2.855505-83.145587 34.434031-77.434576 111.868607 0 2.855505 14.277525 169.146679-97.423112 295.292812-34.434031 34.434031-51.567061 80.290082-51.567061 129.001637V834.864786c0 103.134122 83.145587 186.279709 186.279708 186.279709l361.137398 2.855505c152.013649 0 246.581255-180.568699 255.14777-481.57252-2.855505-46.024022-19.988535-94.735578-54.422566-129.169608zM969.02402 937.830937l-361.137397-2.855505c-54.422566 0-100.278617-45.856051-100.278616-100.278616V539.404004c0-25.867516 11.42202-51.567061 28.72302-71.723566 137.568153-154.869154 120.435123-352.570882 120.435123-361.137398V86.554505c5.71101 0 14.277525 2.855505 28.723021 14.277525 28.723021 19.988535 60.133576 66.012557 68.868062 129.001638 8.566515 74.579072-25.867516 146.134668-25.867516 146.134668-2.855505 5.71101-5.71101 11.42202-5.71101 19.988535v5.71101c2.855505 23.012011 19.988535 40.145041 43.000546 40.145041l269.425295 2.855505c28.723021 0 54.422566 11.42202 74.579072 31.578526 17.13303 19.988535 28.723021 43.000546 25.867516 68.868061-6.214923 235.159235-72.059509 392.715923-166.627116 392.715923z" fill="#40210F" p-id="5423"></path></svg>