<?xml version="1.0" standalone="no"?><!DOCTYPE svg PUBLIC "-//W3C//DTD SVG 1.1//EN" "http://www.w3.org/Graphics/SVG/1.1/DTD/svg11.dtd"><svg t="1629187994800" class="icon" viewBox="0 0 1024 1024" version="1.1" xmlns="http://www.w3.org/2000/svg" p-id="2816" width="16" height="16" xmlns:xlink="http://www.w3.org/1999/xlink"><defs><style type="text/css"></style></defs><path d="M594.513668 504.771403l112.889156-112.889156c24.91559-24.91559 24.91559-65.364974 0-90.280565s-65.364974-24.91559-90.280565 0l-112.889156 112.889156-112.735356-113.042956c-24.91559-24.91559-65.364974-24.91559-90.280565 0s-24.91559 65.364974 0 90.280565l112.889156 112.889156-112.889156 112.889156c-24.91559 24.91559-24.91559 65.364974 0 90.280565s65.364974 24.91559 90.280565 0l112.889156-112.889156 112.889156 112.889156c24.91559 24.91559 65.364974 24.91559 90.280565 0s24.91559-65.364974 0-90.280565l-113.042956-112.735356z m-83.051968 517.690598C229.39261 1022.462001 0.6921 793.91529 0.6921 511.6924 0.6921 229.62331 229.39261 0.9228 511.4617 0.9228c281.91529 0 510.615801 228.700511 510.615801 510.7696 0 282.22289-228.700511 510.7696-510.615801 510.769601z" p-id="2817" fill="#40210F"></path></svg>