<?xml version="1.0" standalone="no"?><!DOCTYPE svg PUBLIC "-//W3C//DTD SVG 1.1//EN" "http://www.w3.org/Graphics/SVG/1.1/DTD/svg11.dtd"><svg t="1629442902153" class="icon" viewBox="0 0 1930 1024" version="1.1" xmlns="http://www.w3.org/2000/svg" p-id="1882" width="30.15625" height="16" xmlns:xlink="http://www.w3.org/1999/xlink"><defs><style type="text/css"></style></defs><path d="M1894.800431 427.495146L1501.272923 33.967638c-45.014024-38.386192-111.84466-35.900755-153.544768 5.799352s-44.461704 108.806904-5.799352 153.544768l313.441208 314.545847-314.822007 314.545847c-32.31068 27.615965-46.394822 70.973031-36.453074 112.396979s42.252427 73.458468 83.400216 83.400216c41.423948 9.941748 84.781014-4.142395 112.396979-36.453074L1893.695793 588.220065c21.540453-20.988134 33.691478-49.984898 33.967637-80.0863 0.27616-30.101402-11.598706-59.098166-32.862999-80.638619zM587.184466 33.967638c-44.185545-43.909385-115.434736-43.909385-159.62028 0L32.932039 427.495146c-43.909385 44.185545-43.909385 115.434736 0 159.62028l393.527508 393.527508c45.014024 38.386192 111.84466 35.900755 153.544768-5.799353s44.461704-108.806904 5.799353-153.544768l-312.06041-313.441208L587.184466 193.311758c43.909385-43.909385 43.909385-115.158576 0-159.34412z m534.921251-24.854369c-28.168285-10.494067-59.374326-9.389428-86.714131 3.037756s-48.604099 35.348436-59.098166 63.79288L685.497303 860.789644c-16.845739 38.386192-11.322546 83.124056 14.912621 115.987055 25.959008 32.862999 68.211435 48.604099 109.359224 40.871629 41.147789-7.73247 74.839266-37.557713 87.266451-77.600863L1187.831715 154.925566c10.770227-28.168285 9.665588-59.098166-2.485437-86.437972-12.427184-27.339806-35.072276-48.880259-63.240561-59.374325z" p-id="1883" fill="#ffffff"></path></svg>