<?xml version="1.0" standalone="no"?><!DOCTYPE svg PUBLIC "-//W3C//DTD SVG 1.1//EN" "http://www.w3.org/Graphics/SVG/1.1/DTD/svg11.dtd"><svg t="1636956730460" class="icon" viewBox="0 0 1024 1024" version="1.1" xmlns="http://www.w3.org/2000/svg" p-id="3791" width="16" height="16" xmlns:xlink="http://www.w3.org/1999/xlink"><defs><style type="text/css"></style></defs><path d="M920.629113 535.12995c12.564417-17.847183 36.836587-22.701617 55.25488-10.993865 18.418293 11.707752 24.414947 35.694367 13.706637 54.68377l-1.998884 3.141104-277.273843 396.493029c-12.564417 17.847183-36.836587 22.701617-55.25488 11.136642-18.418293-11.707752-24.414947-35.694367-13.706637-54.68377l1.998884-3.141104 277.273843-396.635806z m-197.032906-507.431121c97.659788 0 177.61517 77.528165 180.756275 175.045175l0.142777 5.711099v210.025656c0 21.844953-17.276074 39.834914-39.121026 40.834355-21.844953 0.856665-40.548801-15.562744-42.404908-37.407696l-0.142777-3.426659V208.455103c0-52.827663-41.548243-96.517568-94.375907-99.087563l-4.854434-0.142777H210.168433c-52.827663 0-96.517568 41.548243-99.087563 94.375906l-0.142777 4.854434v606.661461c0 52.827663 41.548243 96.517568 94.375906 99.087563l4.854434 0.142778h326.674846c21.844953 0 39.834914 17.276074 40.834356 39.121026 0.856665 21.844953-15.562744 40.548801-37.407696 42.404908l-3.42666 0.142777H210.168433C112.508645 996.015616 32.553263 918.487451 29.412158 820.970441l-0.142777-5.711099V208.455103c0-97.659788 77.528165-177.61517 175.045176-180.756274l5.711098-0.142778h513.570552z m0 0" fill="#40210F" p-id="3792"></path><path d="M676.907975 320.535416c14.991634 0 27.270496 11.707752 27.984384 26.556609 0.713887 14.848857-10.279978 27.841606-25.128834 29.26938l-2.85555 0.142778h-140.064696c-14.991634 0-27.270496-11.707752-27.984383-26.556609-0.713887-14.848857 10.279978-27.841606 25.128834-29.269381l2.855549-0.142777h140.064696z m0 0" fill="#00CE9B" p-id="3793"></path><path d="M606.804239 250.431679c14.420524 0 26.413832 10.851088 27.841606 25.128834l0.142777 2.855549v140.064697c0 14.991634-11.707752 27.270496-26.556609 27.984383-14.848857 0.713887-27.841606-10.279978-29.269381-25.128834l-0.142777-2.855549V278.416062c0-7.424428 2.998327-14.563302 8.138316-19.846068 5.425544-5.139989 12.42164-8.138316 19.846068-8.138315z m0 0M354.230898 359.656442c7.138873-16.562186 22.987172-27.413274 40.977133-28.269939 17.989961-0.713887 34.694925 8.852203 43.118796 24.700502l1.713329 3.569437 128.928054 301.688789c7.281651 17.133296-0.142777 37.122142-16.847742 45.260458-16.847741 8.138316-36.979364 1.71333-45.974344-14.706079l-1.427775-2.998327-107.654211-251.573899L288.981595 688.901283c-7.138873 16.562186-25.699944 24.986057-42.83324 19.560513l-3.141105-1.14222c-16.562186-7.138873-24.986057-25.699944-19.560513-42.83324l1.14222-3.141105 129.641941-301.688789z m0 0" fill="#00CE9B" p-id="3794"></path><path d="M490.155047 535.12995c18.703848 0 33.981037 14.706079 34.98048 33.26715 0.856665 18.703848-12.99275 34.694925-31.55382 36.551032l-3.42666 0.142777H326.960402c-18.703848 0-33.981037-14.706079-34.98048-33.26715-0.856665-18.703848 12.99275-34.694925 31.55382-36.551032l3.42666-0.142777h163.194645z m0 0" fill="#00CE9B" p-id="3795"></path></svg>