<?xml version="1.0" standalone="no"?><!DOCTYPE svg PUBLIC "-//W3C//DTD SVG 1.1//EN" "http://www.w3.org/Graphics/SVG/1.1/DTD/svg11.dtd"><svg t="1629188125985" class="icon" viewBox="0 0 1024 1024" version="1.1" xmlns="http://www.w3.org/2000/svg" p-id="4502" width="16" height="16" xmlns:xlink="http://www.w3.org/1999/xlink"><defs><style type="text/css"></style></defs><path d="M512 0C229.711491 0 0 229.711491 0 512s229.711491 512 512 512 512-229.711491 512-512S794.288509 0 512 0z m286.544743 413.856235l-332.987775 341.375061c-8.011736 8.136919-18.902689 12.768704-30.294376 12.768704h-0.250367c-11.266504 0-22.157457-4.506601-30.169193-12.393154l-179.012225-179.137408c-8.011736-8.011736-12.518337-18.902689-12.518338-30.169194s4.506601-22.157457 12.518338-30.169193 18.902689-12.518337 30.169193-12.518337 22.157457 4.506601 30.169193 12.518337l148.592665 148.467482 302.693399-310.579951c16.524205-16.774572 43.438631-17.150122 60.338386-0.7511 16.899756 16.649389 17.150122 43.688998 0.7511 60.588753z" p-id="4503" fill="#00CE9B"></path></svg>