<?xml version="1.0" standalone="no"?><!DOCTYPE svg PUBLIC "-//W3C//DTD SVG 1.1//EN" "http://www.w3.org/Graphics/SVG/1.1/DTD/svg11.dtd"><svg t="1629187826567" class="icon" viewBox="0 0 1024 1024" version="1.1" xmlns="http://www.w3.org/2000/svg" p-id="2099" width="16" height="16" xmlns:xlink="http://www.w3.org/1999/xlink"><defs><style type="text/css"></style></defs><path d="M149.916341 1017.432236c-16.704964 0-33.409927-2.998327-48.829894-8.852203C54.826548 991.161182 24.700502 950.897936 24.843279 906.065811V292.265477c0-14.848857 1.856107-39.692136 8.566648-53.398773 12.707195-26.699387 39.121026-46.545455 67.962075-53.684328 15.419967-5.853876 31.982153-4.426102 48.687117-4.426102h79.098717c14.848857-0.428332 28.841049 6.139431 36.408254 17.561629 7.709983 11.422197 7.709983 25.557167 0 36.836587-7.709983 11.422197-21.559398 18.132738-36.408254 17.561628H149.916341c-5.853876 0-11.85053 0.999442-17.133296 3.141105-5.282766 1.998885-10.1372 4.854434-14.277747 8.42387-3.997769 3.569437-7.138873 7.852761-9.56609 12.564417-2.284439 4.854434-3.426659 10.1372-3.426659 15.277189v613.800335c0 5.139989 1.14222 10.565533 3.426659 15.277189 2.284439 4.568879 5.425544 8.99498 9.56609 12.564417s8.852203 6.424986 14.13497 8.423871c5.425544 1.998885 11.27942 2.998327 17.133296 3.141104H871.513664c5.853876 0 11.85053-0.999442 17.133296-3.141104 5.282766-1.998885 10.1372-4.854434 14.13497-8.423871 3.997769-3.569437 7.281651-7.852761 9.56609-12.564417 2.284439-4.854434 3.426659-10.1372 3.426659-15.277189V292.265477c0-5.139989-1.14222-10.565533-3.426659-15.277189-2.284439-4.568879-5.425544-8.99498-9.56609-12.564417s-8.852203-6.424986-14.13497-8.423871c-5.425544-1.998885-11.27942-2.998327-17.133296-3.141104h-79.241494c-21.702175-0.713887-39.121026-16.704964-39.121027-36.1227s17.276074-35.266035 39.121027-36.122699H871.513664c16.704964 0 33.26715 2.998327 48.687117 8.852203 14.848857 5.568321 28.412716 13.706637 39.834913 23.843837 11.564975 10.1372 20.559955 22.130508 27.127719 35.408812 6.567764 13.706637 9.994423 28.555494 9.994423 43.40435v613.800335c0 14.848857-3.283882 29.554936-9.994423 43.261573-19.274958 41.691021-64.82097 68.675962-115.364194 68.675962l-721.882878-0.428333z" fill="#40210F" p-id="2100"></path><path d="M243.00725 778.565533c-5.853876 0-11.85053-1.284997-17.133296-3.854992-9.851645-4.568879-17.276074-12.849972-20.84551-23.12995-3.569437-10.1372-2.998327-21.273843 1.570552-31.125488L533.702175 98.65923c9.994423-19.417736 33.552705-27.556051 53.541551-18.132738 19.703291 9.423313 28.698271 32.69604 19.846068 52.827663L279.843837 755.150028c-6.853318 14.277747-21.131065 23.415505-36.836587 23.415505z" fill="#00CE9B" p-id="2101"></path><path d="M632.504183 525.278305H794.413832c14.848857 0.57111 28.841049-6.996096 36.408254-19.846069 7.709983-12.849972 7.709983-28.698271 0-41.548243S809.262688 443.466815 794.413832 444.037925H632.504183c-21.702175 0.856665-39.121026 18.703848-39.121026 40.691579 0 21.702175 17.276074 39.692136 39.121026 40.548801z m162.052426 161.909648H429.902956c-14.848857-0.57111-28.841049 6.996096-36.408254 19.846068s-7.709983 28.698271 0 41.548243 21.559398 20.417178 36.408254 19.846068H794.413832c14.848857 0.57111 28.841049-6.996096 36.408254-19.846068 7.709983-12.849972 7.709983-28.698271 0-41.548243-7.424428-12.849972-21.41662-20.417178-36.265477-19.846068z" fill="#40210F" p-id="2102"></path></svg>