<?xml version="1.0" standalone="no"?><!DOCTYPE svg PUBLIC "-//W3C//DTD SVG 1.1//EN" "http://www.w3.org/Graphics/SVG/1.1/DTD/svg11.dtd"><svg t="1629188064341" class="icon" viewBox="0 0 1532 1024" version="1.1" xmlns="http://www.w3.org/2000/svg" p-id="3816" width="23.9375" height="16" xmlns:xlink="http://www.w3.org/1999/xlink"><defs><style type="text/css"></style></defs><path d="M506.269529 1021.661032c-25.96254-0.70169-50.287803-11.694838-68.531749-30.172681L29.120146 584.975788c-38.826862-40.230242-38.826862-104.084057 0-144.314299 18.945637-19.179534 44.908177-29.938785 71.806304-29.938785s52.860667 10.759251 71.806305 29.938785l333.302878 335.407949 851.384193-745.195066C1376.131567 11.694838 1402.094107 0.70169 1428.992234 0.70169s52.62677 10.759251 71.572407 30.172682c19.179534 18.945637 29.938785 44.908177 29.938785 71.806304s-10.759251 52.860667-29.938785 71.806304L578.075834 991.488351c-19.179534 19.179534-44.908177 29.938785-71.806305 30.172681z" p-id="3817" fill="#ffffff"></path></svg>