<?xml version="1.0" standalone="no"?><!DOCTYPE svg PUBLIC "-//W3C//DTD SVG 1.1//EN" "http://www.w3.org/Graphics/SVG/1.1/DTD/svg11.dtd"><svg t="1629188391413" class="icon" viewBox="0 0 1024 1024" version="1.1" xmlns="http://www.w3.org/2000/svg" p-id="6921" width="16" height="16" xmlns:xlink="http://www.w3.org/1999/xlink"><defs><style type="text/css"></style></defs><path d="M512 0c282.714286 0 512 229.285714 512 512S794.714286 1024 512 1024 0 794.714286 0 512 229.285714 0 512 0z m142.142857 318.142857l-142.142857 142.142857-142.142857-142.142857c-14.285714-14.285714-37.428571-14.285714-51.714286 0s-14.285714 37.428571 0 51.714286l142.142857 142.142857-142.142857 142.142857c-14.285714 14.285714-14.285714 37.428571 0 51.714286s37.428571 14.285714 51.714286 0l142.142857-142.142857 142.142857 142.142857c14.285714 14.285714 37.428571 14.285714 51.714286 0s14.285714-37.428571 0-51.714286l-142.142857-142.142857 142.142857-142.142857c14.285714-14.285714 14.285714-37.428571 0-51.714286-14.285714-14.285714-37.428571-14.285714-51.714286 0z" fill="#40210F" p-id="6922"></path></svg>