<?xml version="1.0" standalone="no"?><!DOCTYPE svg PUBLIC "-//W3C//DTD SVG 1.1//EN" "http://www.w3.org/Graphics/SVG/1.1/DTD/svg11.dtd"><svg t="1629270029698" class="icon" viewBox="0 0 1024 1024" version="1.1" xmlns="http://www.w3.org/2000/svg" p-id="1688" width="16" height="16" xmlns:xlink="http://www.w3.org/1999/xlink"><defs><style type="text/css"></style></defs><path d="M874.496 874.496c98.304-98.304 149.504-225.28 149.504-362.496 0-137.216-51.2-264.192-149.504-362.496C776.192 51.2 649.216 0 512 0 376.832 0 247.808 51.2 149.504 149.504 51.2 247.808 0 374.784 0 512c0 137.216 51.2 264.192 149.504 362.496 98.304 98.304 225.28 149.504 362.496 149.504 137.216 0 264.192-51.2 362.496-149.504zM483.328 647.168l-169.984-169.984c-8.192-8.192-12.288-16.384-12.288-30.72 0-12.288 4.096-20.48 12.288-30.72 16.384-16.384 43.008-16.384 59.392 0l141.312 141.312 141.312-141.312c16.384-16.384 43.008-16.384 59.392 0 16.384 16.384 16.384 43.008 0 59.392l-169.984 169.984c-20.48 20.48-45.056 20.48-61.44 2.048z m0 0" p-id="1689" fill="#777777"></path></svg>