<?xml version="1.0" standalone="no"?><!DOCTYPE svg PUBLIC "-//W3C//DTD SVG 1.1//EN" "http://www.w3.org/Graphics/SVG/1.1/DTD/svg11.dtd"><svg t="1631081631109" class="icon" viewBox="0 0 1024 1024" version="1.1" xmlns="http://www.w3.org/2000/svg" p-id="1733" xmlns:xlink="http://www.w3.org/1999/xlink" width="16" height="16"><defs><style type="text/css"></style></defs><path d="M514.676204 606.512242c-166.34718 0-301.70674-135.35956-301.70674-301.70674S348.329023 3.098762 514.676204 3.098762s301.70674 135.35956 301.70674 301.70674c0.140853 166.34718-135.35956 301.70674-301.70674 301.70674z m0-530.451719c-126.063274 0-228.604127 102.540853-228.604127 228.604126 0 126.063274 102.540853 228.604127 228.604127 228.604127 126.063274 0 228.604127-102.540853 228.604126-228.604127 0-126.063274-102.540853-228.604127-228.604126-228.604126z m0 0" fill="#40210F" p-id="1734"></path><path d="M1003.858047 1022.591472h-73.243467c0-229.449243-186.629986-416.07923-416.079229-416.07923S98.596974 793.142228 98.596974 1022.591472H25.353508c0-269.73315 219.448693-489.322696 489.322696-489.322696 270.014856 0 489.181843 219.589546 489.181843 489.322696z m0 0" fill="#40210F" p-id="1735"></path><path d="M532.423659 948.643741l53.805777-230.576066c1.267675-5.49326 0-11.127373-3.380468-15.49381-3.52132-4.366437-8.732875-6.901788-14.366987-6.901788h-107.611555c-11.690784 0-20.564512 10.98652-17.747455 22.536451l53.805777 230.576066c4.366437 18.733425 31.128473 18.733425 35.494911-0.140853z m0 0" fill="#00CE9B" p-id="1736"></path></svg>