<?xml version="1.0" standalone="no"?><!DOCTYPE svg PUBLIC "-//W3C//DTD SVG 1.1//EN" "http://www.w3.org/Graphics/SVG/1.1/DTD/svg11.dtd"><svg t="1629188292371" class="icon" viewBox="0 0 1024 1024" version="1.1" xmlns="http://www.w3.org/2000/svg" p-id="6079" width="16" height="16" xmlns:xlink="http://www.w3.org/1999/xlink"><defs><style type="text/css"></style></defs><path d="M667.770218 1009.008366c-19.417736 0-35.123257-15.705521-35.123258-35.123257V740.443949c0-42.262131-26.842164-77.956497-58.538761-77.956498h-124.216398c-31.696598 0-58.538762 35.694367-58.538761 77.956498v233.44116c0 19.417736-15.705521 35.123257-35.123258 35.123257s-35.123257-15.705521-35.123257-35.123257V740.443949c0-81.668712 57.682097-148.203012 128.642499-148.203012h124.216397c70.960402 0 128.642499 66.391523 128.642499 148.203012v233.44116c0.285555 19.417736-15.562744 35.123257-34.837702 35.123257z" fill="#ffffff" p-id="6080"></path><path d="M879.223648 1024H144.91913C75.672058 1024 19.132181 967.6029 19.132181 898.213051v-479.732292c0-66.819855 31.982153-130.498606 85.66648-170.190742 0.428332-0.285555 0.856665-0.57111 1.284998-0.999443L437.755717 24.414947c44.54657-32.553263 103.941997-32.553263 148.488566 0l331.672058 222.875627c0.428332 0.285555 0.999442 0.57111 1.284998 0.999443 53.684328 39.834914 85.666481 103.513664 85.66648 170.190742v479.875069c0 69.389849-56.3971 125.644172-125.644171 125.644172zM146.204127 304.972672c-35.55159 26.842164-56.539877 68.81874-56.682655 113.508087v479.875069c0 30.697156 24.843279 55.540435 55.540435 55.540435h734.161741c30.697156 0 55.540435-24.986057 55.540435-55.540435V418.480759c0-44.403793-21.131065-86.808701-56.682655-113.508087l-331.386503-222.73285c-0.428332-0.285555-0.856665-0.57111-1.284998-0.999443-19.846068-14.706079-46.402677-14.706079-66.248745 0-0.428332 0.285555-0.856665 0.713887-1.284997 0.999443L146.204127 304.972672z" fill="#ffffff" p-id="6081"></path></svg>