<?xml version="1.0" standalone="no"?><!DOCTYPE svg PUBLIC "-//W3C//DTD SVG 1.1//EN" "http://www.w3.org/Graphics/SVG/1.1/DTD/svg11.dtd"><svg t="1629187742413" class="icon" viewBox="0 0 1024 1024" version="1.1" xmlns="http://www.w3.org/2000/svg" p-id="1834" width="16" height="16" xmlns:xlink="http://www.w3.org/1999/xlink"><defs><style type="text/css"></style></defs><path d="M967.174568 1013.720022H57.396542c-17.704406 0-33.124373-15.419967-33.124372-33.124372s15.419967-33.124373 33.124372-33.124373H967.174568c17.704406 0 33.124373 15.419967 33.124372 33.124373 0 17.561629-15.419967 33.124373-33.124372 33.124372z" fill="#00CE9B" p-id="1835"></path><path d="M176.758505 867.944228H132.640268c-59.823759 0-108.368098-48.544339-108.368098-108.225321V576.535416c0-59.680982 48.544339-108.225321 108.22532-108.225321h44.118238c59.680982 0 108.225321 48.544339 108.225321 108.225321v183.326268c0 59.538204-48.544339 108.082543-108.082544 108.082544z m-44.261015-333.528166c-22.130508 0-41.976576 17.704406-41.976575 41.976576v183.326269c0 22.130508 17.704406 41.976576 41.976575 41.976575h44.118238c22.130508 0 41.976576-17.704406 41.976575-41.976575V576.535416c0-22.130508-17.704406-41.976576-41.976575-41.976576l-44.118238-0.142778z m395.208031 333.528166h-44.118237c-59.680982 0-108.225321-48.544339-108.225321-108.225321V366.652538c0-59.680982 48.544339-108.225321 108.225321-108.225321h44.118237c59.680982 0 108.225321 48.544339 108.225321 108.225321v393.066369c0 59.680982-48.544339 108.225321-108.225321 108.225321z m-46.259899-543.268266c-22.130508 0-41.976576 17.704406-41.976576 41.976576v393.066369c0 22.130508 17.704406 41.976576 41.976576 41.976575h44.118237c22.130508 0 41.976576-17.704406 41.976576-41.976575V366.652538c0-22.130508-17.704406-41.976576-41.976576-41.976576h-44.118237z m410.770775 543.268266h-44.118237c-59.680982 0-108.225321-48.544339-108.225321-108.225321V503.576129c0-59.680982 48.544339-108.225321 108.225321-108.22532h44.118237c59.680982 0 108.225321 48.544339 108.225321 108.22532v256.142778c-0.142777 59.680982-48.687117 108.225321-108.225321 108.225321z m-44.261015-404.203012c-22.130508 0-41.976576 17.704406-41.976576 41.976575v256.142778c0 22.130508 17.704406 41.976576 41.976576 41.976575h44.118238c22.130508 0 41.976576-17.704406 41.976575-41.976575v-258.427217c0-22.130508-17.704406-41.976576-41.976575-41.976576h-44.118238v2.28444z" fill="#40210F" p-id="1836"></path></svg>