<?xml version="1.0" standalone="no"?><!DOCTYPE svg PUBLIC "-//W3C//DTD SVG 1.1//EN" "http://www.w3.org/Graphics/SVG/1.1/DTD/svg11.dtd"><svg t="1629188024884" class="icon" viewBox="0 0 1024 1024" version="1.1" xmlns="http://www.w3.org/2000/svg" p-id="3316" width="16" height="16" xmlns:xlink="http://www.w3.org/1999/xlink"><defs><style type="text/css"></style></defs><path d="M511.5633 0.623858C230.453028 0.623858 0.499086 230.577799 0.499086 511.688071s229.953942 511.064213 511.064214 511.064214 511.064213-229.953942 511.064213-511.064214S792.673571 0.623858 511.5633 0.623858z m0 876.145729c-40.176435 0-72.991349-32.814914-72.991349-72.991349s32.814914-72.991349 72.991349-72.991349 72.991349 32.814914 72.991348 72.991349-32.814914 72.991349-72.991348 72.991349z m72.991348-365.081516c0 40.176435-32.814914 72.991349-72.991348 72.991349s-72.991349-32.814914-72.991349-72.991349V219.597904c0-40.176435 32.814914-72.991349 72.991349-72.991349s72.991349 32.814914 72.991348 72.991349v292.090167z" p-id="3317" fill="#40210F"></path></svg>