<?xml version="1.0" standalone="no"?><!DOCTYPE svg PUBLIC "-//W3C//DTD SVG 1.1//EN" "http://www.w3.org/Graphics/SVG/1.1/DTD/svg11.dtd"><svg t="1629188362828" class="icon" viewBox="0 0 1024 1024" version="1.1" xmlns="http://www.w3.org/2000/svg" p-id="6686" width="16" height="16" xmlns:xlink="http://www.w3.org/1999/xlink"><defs><style type="text/css"></style></defs><path d="M510.770052 410.529294c-111.925264 0-205.264647-91.016148-205.264647-205.264647C305.505405 93.339383 396.521553 0 510.770052 0s205.264647 91.016148 205.264647 205.401308c0 111.925264-93.202723 205.127986-205.264647 205.127986z m0-340.422261c-74.616842 0-135.294275 60.677432-135.294275 135.294275s60.677432 135.294275 135.294275 135.294275 135.294275-60.677432 135.294275-135.294275c0-74.753503-60.540771-135.294275-135.294275-135.294275z" fill="#00CE9B" p-id="6687"></path><path d="M702.095289 1024H319.581476C163.378086 1024 35.053517 895.67543 35.053517 739.472041s128.32457-284.527959 284.527959-284.52796h384.837048c156.20339 0 284.527959 128.32457 284.527959 284.52796s-130.647805 284.527959-286.851194 284.527959zM319.581476 527.237689c-116.571734 0-214.557587 95.662618-214.557587 214.557587s95.662618 214.557587 214.557587 214.557587h384.837048c116.571734 0 214.557587-95.662618 214.557587-214.557587s-95.662618-214.557587-214.557587-214.557587H319.581476z" fill="#40210F" p-id="6688"></path></svg>