<?xml version="1.0" standalone="no"?><!DOCTYPE svg PUBLIC "-//W3C//DTD SVG 1.1//EN" "http://www.w3.org/Graphics/SVG/1.1/DTD/svg11.dtd"><svg t="1629188108856" class="icon" viewBox="0 0 1199 1024" version="1.1" xmlns="http://www.w3.org/2000/svg" p-id="4317" width="18.734375" height="16" xmlns:xlink="http://www.w3.org/1999/xlink"><defs><style type="text/css"></style></defs><path d="M707.924324 1024c-12.821983 0-23.230417-2.564397-36.0524-5.128793l-7.69319-2.564397-272.881973-162.311224c-23.230417-5.128793-61.847214-12.821983-79.79799-12.821983h-5.128794L108.1572 817.943186C48.874383 817.943186 0 766.504406 0 707.221589V346.848435c0-59.282817 48.874383-108.1572 108.1572-110.721596L332.013944 205.203232c25.794813 0 51.43878-5.128793 77.233593-12.821984l254.931197-182.826397 5.128794-2.564396c33.488003-12.821983 72.1048-7.69319 100.46401 12.821983C798.130748 40.478458 816.081525 73.815615 816.081525 109.868015v800.695145c0 36.0524-17.950777 69.540403-46.309987 90.055576-15.537227 15.537227-38.616797 23.381264-61.847214 23.381264z m-7.693189-79.79799c10.257587 2.564397 17.950777 0 25.794813-5.128793 7.69319-5.128793 12.821983-15.38638 12.821983-25.794814V112.583258c0-10.257587-5.128793-20.66602-12.821983-28.35921-7.69319-5.128793-17.950777-7.69319-25.794813-5.128793L447.864334 261.921652l-5.128793 2.564397c-33.488003 12.821983-69.540403 17.950777-105.592804 17.950776L113.285994 313.360432c-18.101623 0-33.488003 15.537227-33.488004 33.488003v357.808758c0 17.950777 15.38638 33.488003 33.488004 33.488003h5.128793l198.212777 23.230417c36.0524 0 95.18437 15.38638 100.46401 17.950776l5.128793 2.564397 278.010768 162.311224z" fill="#40210F" p-id="4318"></path><path d="M1009.165508 877.226003c-12.821983 0-25.794813-7.69319-33.488003-17.950777-10.257587-17.950777-5.128793-41.181193 12.821983-54.003176 79.79799-48.874383 133.801167-169.853567 133.801167-301.241184 0-141.645204-61.847214-267.75318-149.338394-308.934374-20.66602-7.69319-28.35921-30.923607-17.950776-51.43878 10.257587-20.66602 30.923607-28.35921 51.43878-17.950777 115.85039 54.003177 193.083984 205.905967 193.083984 378.474778 0 159.59598-66.976007 303.805581-169.853567 365.501947-5.128793 4.977946-12.821983 7.542343-20.515174 7.542343z" fill="#00CE9B" p-id="4319"></path></svg>