<?xml version="1.0" standalone="no"?><!DOCTYPE svg PUBLIC "-//W3C//DTD SVG 1.1//EN" "http://www.w3.org/Graphics/SVG/1.1/DTD/svg11.dtd"><svg t="1629188144868" class="icon" viewBox="0 0 1024 1024" version="1.1" xmlns="http://www.w3.org/2000/svg" p-id="4774" width="16" height="16" xmlns:xlink="http://www.w3.org/1999/xlink"><defs><style type="text/css"></style></defs><path d="M510.841012 1024C280.406924 1024 91.969108 835.562184 91.969108 605.128096v-37.223968c0-97.764048 79.083888-179.165912 179.165912-179.165912h504.90972c86.174168-0.136352 155.986152 69.675632 155.986152 155.8498v60.54008C929.712916 835.425832 741.138748 1024 510.841012 1024zM268.817044 458.413848c-60.54008 0-109.353928 48.813848-109.353928 109.353928v37.223968c0 193.21012 155.8498 349.05992 349.05992 349.05992s349.05992-155.8498 349.05992-349.05992V546.76964c0-48.813848-39.541944-86.037816-86.037816-86.037816H268.817044v-2.317976z" fill="#40210F" p-id="4775"></path><path d="M713.323036 414.235952c-18.68016 0-34.905992-16.225832-34.905992-34.905992V237.388016c0-93.128096-74.447936-167.576032-167.576032-167.576032s-167.576032 74.447936-167.576032 167.576032v141.941944c0 18.68016-16.225832 34.905992-34.905992 34.905992-18.68016 0-34.905992-16.225832-34.905992-34.905992V237.388016C273.452996 107.035952 380.488948 0 510.841012 0s237.388016 107.035952 237.388016 237.388016v141.941944c0 18.68016-16.362184 34.905992-34.905992 34.905992z" fill="#40210F" p-id="4776"></path><path d="M510.841012 781.976032c-18.68016 0-34.905992-16.225832-34.905992-34.905992v-151.3502c0-18.68016 16.225832-34.905992 34.905992-34.905992s34.905992 16.225832 34.905992 34.905992v151.213848c0 18.68016-16.362184 35.042344-34.905992 35.042344z" fill="#00CE9B" p-id="4777"></path></svg>