<?xml version="1.0" standalone="no"?><!DOCTYPE svg PUBLIC "-//W3C//DTD SVG 1.1//EN" "http://www.w3.org/Graphics/SVG/1.1/DTD/svg11.dtd"><svg t="1632813609512" class="icon" viewBox="0 0 1024 1024" version="1.1" xmlns="http://www.w3.org/2000/svg" p-id="7670" width="16" height="16" xmlns:xlink="http://www.w3.org/1999/xlink"><defs><style type="text/css"></style></defs><path d="M972.707302 44.49487c-26.882317-27.19131-66.433313-37.542547-103.048883-26.727821L85.127339 241.322873c-35.534098 10.351237-63.0344 38.933011-72.304165 74.776101-9.115269 35.997586 1.390465 74.158117 27.654798 100.267954l169.018709 169.636693c12.20519 12.20519 31.980688 12.20519 44.031382 0 12.20519-12.20519 12.20519-31.980688 0-44.031382L83.89137 372.335546c-10.660229-10.814725-14.831623-26.418829-11.123718-41.095956 3.862402-14.677127 15.140616-26.264333 29.663247-30.435728L886.498491 75.548582c2.935425-0.308992 5.870851-0.308992 8.651781 0L319.961376 652.59143c-5.870851 5.716355-9.115269 13.595655-9.269765 21.783947v295.087508c0 17.149065 13.904647 31.053712 31.053712 31.053711 17.149065 0 31.053712-13.904647 31.053711-31.053711V749.460471l226.645746 226.645745c19.466506 19.775498 46.039831 31.053712 73.849125 31.053712 8.960772-0.154496 18.076041-1.390465 26.727821-3.707906 36.152082-9.115269 64.57936-36.770066 74.467109-72.613157L998.817139 146.925769c10.814725-36.306578 0.77248-75.703078-26.109837-102.430899zM715.62583 913.998793c-4.171394 14.522631-15.7586 25.800845-30.435727 29.663247s-30.281231-0.308992-41.095957-11.123718L385.776705 674.220881 941.035607 120.815932c0.308992 3.089922 0.308992 6.179843 0 9.269765L715.62583 913.998793z m0 0" fill="#FFFFFF" p-id="7671"></path></svg>