<?xml version="1.0" standalone="no"?><!DOCTYPE svg PUBLIC "-//W3C//DTD SVG 1.1//EN" "http://www.w3.org/Graphics/SVG/1.1/DTD/svg11.dtd"><svg t="1633672076812" class="icon" viewBox="0 0 1194 1024" version="1.1" xmlns="http://www.w3.org/2000/svg" p-id="2608" xmlns:xlink="http://www.w3.org/1999/xlink" width="18.65625" height="16"><defs><style type="text/css"></style></defs><path d="M128.075516 853.434022c11.478466 0 21.547296-4.228909 30.005113-12.686726 8.457817-8.457817 12.686726-18.526647 12.686726-30.005113 0-11.478466-4.228909-21.547296-12.686726-30.005113-8.457817-8.457817-18.526647-12.686726-30.005113-12.686726-11.478466 0-21.547296 4.228909-30.005113 12.686726-8.457817 8.457817-12.686726 18.526647-12.686726 30.005113 0 11.478466 4.228909 21.547296 12.686726 30.005113 8.457817 8.457817 18.32527 12.686726 30.005113 12.686726z m509.281416 85.182301c83.974041 0 126.06175-37.053294 126.06175-111.361259 0-11.478466-1.20826-23.963815-3.423402-37.254671 13.290855-7.048181 23.963815-18.728024 31.616126-35.039528 7.853687-16.311504 11.679843-32.623009 11.679843-48.934513 0-16.512881-4.027532-31.817502-12.082596-45.913864 23.561062-22.151426 35.240905-48.733137 35.240905-79.34238 0-11.075713-2.215143-23.359685-6.645428-37.053294-4.430285-13.492232-10.06883-24.165192-16.714258-31.616126h220.708751c23.158309 0 43.094592-8.457817 60.010227-25.373451 16.915634-16.915634 25.373451-36.851917 25.373451-60.010226 0-22.755556-8.659194-42.490462-25.977581-59.607473-17.318387-17.117011-37.053294-25.574828-59.406097-25.574828H639.974828c0-8.86057 3.423402-19.734907 10.06883-32.421632 6.645428-12.686726 14.096362-24.970698 21.950049-36.650541 8.055064-11.679843 15.304621-26.984464 21.950049-45.309735 6.645428-18.526647 10.06883-37.254671 10.06883-56.385447 0-29.803736-9.867453-51.351032-29.60236-65.044641-19.734907-13.492232-45.511111-20.339036-76.92586-20.339037-10.67296 0-30.609243 30.810619-60.010226 92.633235-10.67296 19.53353-18.9294 34.032645-24.567945 43.295969-17.721141 28.3941-42.691839 60.614356-74.710718 96.660767-31.616126 36.046411-53.968928 59.607473-67.259784 70.683186-30.609243 25.373451-61.822616 38.060177-93.237365 38.060177h-21.345919v426.717011h21.345919c32.018879 0 69.072173 7.048181 111.361259 21.345919s85.182301 28.3941 129.082399 42.691839c43.295969 14.096362 83.168535 21.144543 119.214946 21.144543z m3.222026 85.383677c-59.20472 0-130.693412-15.304621-214.667454-45.913864-72.898328-26.178958-122.436971-39.268437-148.615929-39.268437H85.383677c-23.561062 0-43.698722-8.256441-60.412979-24.970698-16.714258-16.915634-24.970698-36.851917-24.970698-60.412979V426.717011c0-23.561062 8.256441-43.698722 24.970698-60.41298s36.851917-24.970698 60.412979-24.970698h191.911898c4.430285 0 9.263324-1.006883 14.297739-3.020649s10.270206-5.034415 15.707374-9.263323c5.235792-4.228909 10.270206-8.256441 14.901869-12.082596 4.631662-3.826155 10.06883-8.86057 15.908751-14.901868 6.041298-6.242675 10.471583-11.075713 13.693608-14.297739 3.020649-3.423402 7.249558-8.055064 12.686726-14.297738 5.235792-6.242675 8.457817-10.06883 9.263324-11.27709 28.796853-32.824385 51.149656-61.621239 66.655653-85.987807 5.839921-9.263324 13.089479-23.158309 21.95005-41.282202 8.86057-18.32527 17.117011-34.234022 24.769321-47.927631 7.652311-13.693609 16.512881-27.789971 26.984464-42.087709 10.471583-14.297738 22.755556-25.172075 36.650541-33.025762 14.096362-7.853687 29.400983-11.679843 46.316618-11.679842C652.86293 0 698.776794 14.901868 735.024582 44.705605s54.371681 71.690069 54.371682 126.06175c0 30.20649-4.833038 58.60059-14.700492 85.383677h249.304228c46.316618 0 86.189184 16.915634 120.020452 50.746903 33.831268 33.831268 50.746903 73.502458 50.746903 119.416323 0 46.719371-16.714258 86.793314-50.344149 120.624582-33.629892 33.831268-73.703835 50.746903-120.423206 50.746902h-112.569518c-1.812389 27.588594-10.06883 53.968928-24.769322 79.34238 1.409636 9.263324 2.013766 18.9294 2.013766 28.595477 0 44.906981-13.290855 84.376794-40.073943 118.610816 0.402753 61.822616-18.526647 110.555752-56.586824 146.400787-38.261554 35.442281-88.605703 53.364798-151.435201 53.364798z m0 0" p-id="2609" fill="#00CE9B"></path></svg>