<?xml version="1.0" standalone="no"?><!DOCTYPE svg PUBLIC "-//W3C//DTD SVG 1.1//EN" "http://www.w3.org/Graphics/SVG/1.1/DTD/svg11.dtd"><svg t="1634793311778" class="icon" viewBox="0 0 1024 1024" version="1.1" xmlns="http://www.w3.org/2000/svg" p-id="4200" width="16" height="16" xmlns:xlink="http://www.w3.org/1999/xlink"><defs><style type="text/css"></style></defs><path d="M512.140853 578.200825c-158.036864 0-286.21293-128.176066-286.21293-286.21293 0-158.036864 128.176066-286.21293 286.21293-286.212929 158.036864 0 286.21293 128.176066 286.21293 286.212929 0 158.036864-128.035213 286.21293-286.21293 286.21293z m0-76.342228c115.921871 0 209.870702-93.948831 209.870701-209.870702s-93.948831-209.870702-209.870701-209.870701-209.870702 93.948831-209.870702 209.870701 94.089684 209.870702 209.870702 209.870702z m0 0" fill="#40210F" p-id="4201"></path><path d="M405.515268 410.445117c-8.169464-10.845667-10.00055-25.353508-4.648143-37.889409 5.352407-12.535901 16.902338-21.268776 30.424209-22.959009 13.521871-1.690234 26.902889 4.084732 35.072352 14.930399 10.845667 14.366988 27.748006 22.818157 45.777167 22.818156 18.170014 0 34.931499-8.592022 45.777166-22.818156 8.169464-10.845667 21.550481-16.620633 35.072352-14.930399 13.521871 1.690234 25.212655 10.423109 30.424209 22.959009 5.352407 12.535901 3.52132 27.043741-4.648143 37.889409-25.212655 33.522971-64.792297 53.242366-106.625584 53.101513-41.833287 0.140853-81.41293-19.578542-106.625585-53.101513z m0 0" fill="#00CE9B" p-id="4202"></path><path d="M989.209354 978.786245c0 13.662724-7.324347 26.198624-19.015131 33.100412-11.831637 6.760935-26.339477 6.760935-38.171114 0s-19.015131-19.437689-19.015131-33.100412c0-221.27978-179.446492-400.726272-400.726272-400.726273S111.555433 757.506465 111.555433 978.786245c0 21.127923-17.043191 38.171114-38.171114 38.171114-21.127923 0-38.171114-17.043191-38.171114-38.171114 0-263.394773 213.532875-476.927648 476.927648-476.927648s477.068501 213.532875 477.068501 476.927648z m0 0" fill="#40210F" p-id="4203"></path></svg>