<?xml version="1.0" standalone="no"?><!DOCTYPE svg PUBLIC "-//W3C//DTD SVG 1.1//EN" "http://www.w3.org/Graphics/SVG/1.1/DTD/svg11.dtd"><svg t="1632813497952" class="icon" viewBox="0 0 1024 1024" version="1.1" xmlns="http://www.w3.org/2000/svg" p-id="6888" width="16" height="16" xmlns:xlink="http://www.w3.org/1999/xlink"><defs><style type="text/css"></style></defs><path d="M495.159928 40.632468v69.523235H147.389258c-38.469523 0-69.523235 31.208208-69.523235 69.523235v695.695836c0 18.385033 7.261316 36.152082 20.393482 49.129752 12.97767 12.97767 30.744719 20.393482 49.129753 20.393482h695.695836c38.469523 0 69.523235-31.208208 69.523234-69.523234V527.604104h69.523235v347.77067c0 36.924562-14.677127 72.304164-40.786964 98.414001a139.157707 139.157707 0 0 1-98.414002 40.786964H147.389258c-36.924562 0-72.304164-14.677127-98.414002-40.786964C22.865419 947.833434 8.188292 912.453832 8.188292 875.52927V179.833434c0-36.924562 14.677127-72.304164 40.786964-98.414001 26.109837-26.109837 61.489439-40.786964 98.414002-40.786965h347.77067z m95.942064 509.682559c-8.033796 9.424261-20.547978 13.904647-32.753169 11.587206-12.20519-2.317441-22.247435-10.969221-26.418829-22.556427-4.171394-11.741702-1.699457-24.719372 6.334339-34.143633L955.712734 18.076041c12.514182-14.522631 34.452625-16.376584 48.975256-3.862402 14.522631 12.514182 16.376584 34.452625 3.862402 48.975257L591.101992 550.315027z m0 0" fill="#FFFFFF" p-id="6889"></path></svg>