<?xml version="1.0" standalone="no"?><!DOCTYPE svg PUBLIC "-//W3C//DTD SVG 1.1//EN" "http://www.w3.org/Graphics/SVG/1.1/DTD/svg11.dtd"><svg t="1634786934843" class="icon" viewBox="0 0 1024 1024" version="1.1" xmlns="http://www.w3.org/2000/svg" p-id="3839" width="16" height="16" xmlns:xlink="http://www.w3.org/1999/xlink"><defs><style type="text/css"></style></defs><path d="M683.558735 539.607153c-147.191197 0-266.493535-119.302338-266.493536-266.493535 0-147.191197 119.302338-266.493535 266.493536-266.493535 147.191197 0 266.493535 119.302338 266.493535 266.493535 0 147.191197-119.302338 266.493535-266.493535 266.493535z m0-62.820358c112.40055 0 203.673177-91.131774 203.673177-203.673177 0-112.40055-91.131774-203.673177-203.673177-203.673178-112.40055 0-203.673177 91.131774-203.673178 203.673178 0 112.541403 91.131774 203.673177 203.673178 203.673177z m0 0" fill="#ffffff" p-id="3840"></path><path d="M536.226685 59.862448l-27.043741 56.763687c-82.680605-39.157084-181.700138-11.97249-232.688859 63.94718s-39.016231 177.756259 28.45227 239.731499c67.468501 61.834388 170.009354 65.074003 241.28088 7.606053l39.579643 48.735075c-95.357359 77.046492-232.829711 72.820908-323.257222-10.141403-90.42751-82.821458-106.625585-219.448693-38.171114-321.144429C292.833012 43.664374 425.375516 7.324347 536.226685 59.862448z m0 0" fill="#ffffff" p-id="3841"></path><path d="M906.387895 528.902338c10.423109 4.788996 17.46575 14.789546 18.170014 26.339478 0.845117 11.409078-4.648143 22.395598-14.226135 28.593122s-21.832187 6.760935-31.97359 1.267675C742.29436 517.774966 581.158735 525.381018 452.137552 605.526272c-129.021183 80.004402-207.476204 221.138927-207.335351 372.837414 0 17.324897-14.085282 31.410179-31.410179 31.410179s-31.410179-14.085282-31.410179-31.410179c0-173.530674 89.582393-334.807153 237.055296-426.361485 147.472902-91.554333 331.849243-100.287208 487.350756-23.099863z m0 0" fill="#ffffff" p-id="3842"></path><path d="M514.535351 488.195873c16.47978 4.366437 26.621183 21.127923 22.536451 37.748556-3.943879 16.620633-20.564512 27.043741-37.325997 23.381568-104.090234-25.212655-213.955433-1.126823-298.044567 65.074003-84.089133 66.200825-133.246768 167.474003-133.246768 274.522146 0 17.324897-14.085282 31.410179-31.410178 31.410179S5.634113 906.247043 5.634113 888.922146c0-126.344979 57.890509-245.647318 157.191747-323.820633s228.885832-106.484732 351.709491-76.90564z m0 0" fill="#ffffff" p-id="3843"></path><path d="M873.569188 669.3326c9.859697-0.140853 19.296836 3.803026 26.339478 10.704814 7.042641 6.901788 10.98652 16.338927 10.98652 26.198625v2.676203c0 5.634113 4.648143 10.423109 10.704814 10.423109 1.831087 0 3.803026-0.422558 5.352407-1.408528l2.394498-1.408529c17.747455-10.141403 40.424759-4.366437 50.988721 13.240165l29.156534 49.157635c5.070702 8.451169 6.47923 18.733425 3.803026 28.170563-2.535351 9.577992-8.873728 17.606602-17.606603 22.395599l-2.394498 1.267675c-5.211554 2.957909-6.901788 9.01458-4.084731 13.662724 0.845117 1.549381 2.253645 2.817056 3.803026 3.662173l2.394498 1.267675c18.029161 10.00055 24.367538 32.818707 13.803576 50.707016l-29.015681 49.157634c-10.563961 17.46575-32.95956 23.381568-50.707015 13.52187l-2.394498-1.408528c-3.52132-1.971939-7.746905-1.971939-11.127373 0-1.549381 0.845117-2.817056 2.112792-3.803026 3.662174-0.845117 1.408528-1.408528 3.098762-1.408528 4.648143v2.817056c0 10.00055-4.084732 19.437689-11.127373 26.339477-7.042641 6.760935-16.338927 10.563961-26.198624 10.563962h-58.172215c-9.859697 0.140853-19.296836-3.803026-26.339477-10.704815-7.042641-6.901788-10.98652-16.338927-11.127373-26.198624V970.475928c0-2.676204-1.126823-5.352407-3.098762-7.183493-3.380468-3.380468-8.732875-4.084732-12.958459-1.690234l-2.394498 1.408528c-17.747455 10.141403-40.424759 4.225585-50.988721-13.381018l-29.156534-49.157634c-5.070702-8.451169-6.338377-18.592572-3.803026-28.170564 2.535351-9.577992 8.873728-17.606602 17.46575-22.395598l2.394498-1.408528c2.394498-1.267675 4.225585-3.662173 5.070701-6.338377 0.704264-2.535351 0.422558-5.211554-0.98597-7.324347-0.98597-1.549381-2.253645-2.817056-3.803026-3.662173l-2.394498-1.408529c-8.732875-4.788996-15.071252-12.817607-17.747455-22.395598-2.676204-9.577992-1.267675-19.719395 3.803026-28.311417l29.156534-49.157634c10.563961-17.46575 32.95956-23.381568 50.847868-13.52187l2.535351 1.408528c3.52132 1.971939 7.746905 1.971939 11.127372 0 1.549381-0.845117 2.817056-2.112792 3.803026-3.662174 0.845117-1.408528 1.267675-3.098762 1.267676-4.648143v-2.817056c-0.140853-10.00055 3.943879-19.578542 11.127373-26.621183 7.042641-6.760935 16.47978-10.704814 26.339477-10.563961h58.172214z m-49.016781 47.185694c-2.253645 18.029161-13.099312 33.94553-29.156534 42.678405-15.775516 8.592022-34.649794 9.577992-51.270426 2.535351l-19.296836 32.537001c18.874278 13.944429 27.043741 38.030261 20.705364 60.42586-3.380468 12.254195-10.704814 22.95901-20.705364 30.565061l19.296836 32.537002c21.550481-9.155433 46.622283-4.50729 63.383769 11.831637 9.296286 9.01458 15.071252 20.705365 16.761486 33.241265h39.720495c2.394498-18.029161 13.240165-33.663824 29.156533-42.396699 15.775516-8.592022 34.649794-9.577992 51.129574-2.53535l19.296836-32.537002c-14.366988-10.845667-22.677304-27.607153-22.677304-45.636313 0-17.888308 8.451169-34.790646 22.818157-45.495461l-19.155983-32.537001c-16.620633 7.183494-35.635763 6.197524-51.41128-2.676204-15.775516-8.873728-26.48033-24.649243-28.874828-42.537552h-39.720495z m0 0" fill="#ffffff" p-id="3844"></path><path d="M846.948006 889.344704c-16.902338 0-32.396149-9.01458-40.847318-23.522421-8.451169-14.648693-8.451169-32.537001 0-47.185694 8.451169-14.648693 23.944979-23.522421 40.847318-23.522421 26.057772 0 47.185695 21.127923 47.185694 47.185694 0 25.916919-21.127923 47.044842-47.185694 47.044842z m0-29.297386c6.338377 0 12.254195-3.380468 15.49381-8.873728 3.239615-5.49326 3.239615-12.395048 0-17.888308-3.239615-5.49326-9.155433-8.873728-15.49381-8.873728-9.859697 0-17.888308 8.028611-17.888309 17.888308 0 9.859697 8.028611 17.747455 17.888309 17.747456z m0 0" fill="#ffffff" p-id="3845"></path></svg>