<?xml version="1.0" standalone="no"?><!DOCTYPE svg PUBLIC "-//W3C//DTD SVG 1.1//EN" "http://www.w3.org/Graphics/SVG/1.1/DTD/svg11.dtd"><svg t="1632896817948" class="icon" viewBox="0 0 1024 1024" version="1.1" xmlns="http://www.w3.org/2000/svg" p-id="2677" width="16" height="16" xmlns:xlink="http://www.w3.org/1999/xlink"><defs><style type="text/css"></style></defs><path d="M512 0c282.714286 0 512 229.285714 512 512 0 282.714286-229.285714 512-512 512C229.285714 1024 0 794.714286 0 512 0 229.285714 229.285714 0 512 0z m142.142857 318.142857l-142.142857 142.142857-142.142857-142.142857c-14.285714-14.285714-37.428571-14.285714-51.714286 0-14.285714 14.285714-14.285714 37.428571 0 51.714286l142.142857 142.142857-142.142857 142.142857c-14.285714 14.285714-14.285714 37.428571 0 51.714286 14.285714 14.285714 37.428571 14.285714 51.714286 0l142.142857-142.142857 142.142857 142.142857c14.285714 14.285714 37.428571 14.285714 51.714286 0 14.285714-14.285714 14.285714-37.428571 0-51.714286l-142.142857-142.142857 142.142857-142.142857c14.285714-14.285714 14.285714-37.428571 0-51.714286-14.285714-14.285714-37.428571-14.285714-51.714286 0z m0 0" fill="#C3C3C3" p-id="2678"></path></svg>