<?xml version="1.0" standalone="no"?><!DOCTYPE svg PUBLIC "-//W3C//DTD SVG 1.1//EN" "http://www.w3.org/Graphics/SVG/1.1/DTD/svg11.dtd"><svg t="1634793904980" class="icon" viewBox="0 0 1024 1024" version="1.1" xmlns="http://www.w3.org/2000/svg" p-id="4592" width="16" height="16" xmlns:xlink="http://www.w3.org/1999/xlink"><defs><style type="text/css"></style></defs><path d="M875.870091 485.808969c-16.129188-15.577763-41.908318-15.577763-58.037506 0.137857L551.356339 745.116687V39.981666c-0.137856-10.752792-4.549258-21.092015-12.269211-28.536256C531.367175 4.001169 521.027951-0.13452 510.275159 0.003336c-22.332722-0.275713-40.667611 17.645608-40.943324 39.840473v703.342889L205.061291 485.946826c-16.267044-15.715619-41.908318-15.577763-58.037506 0.137856-7.719953 7.444241-11.993499 17.645608-11.993499 28.260543 0 10.614936 4.411402 20.816303 12.131355 28.260544l332.371561 323.273044c4.135689 3.997833 8.96066 7.030672 14.1992 8.960661 5.23854 2.343557 10.890648 3.584264 16.680614 3.584264 1.378563 0 2.757126-0.689282 4.135689-0.827138 11.028505 0.137856 21.505584-4.135689 29.363394-11.717787l331.957992-323.548757c7.719953-7.444241 11.993499-17.645608 11.993499-28.260543 0-10.752792-4.273546-20.954159-11.993499-28.260544z m137.580596 496.144857c0 22.470578-18.748458 40.805467-41.908318 40.805467H51.489363C28.605215 1022.89715 9.856757 1004.700117 9.581045 981.953826c0-22.470578 18.748458-40.805467 41.908318-40.805468h920.190863c23.022004 0 41.770462 18.197033 41.770461 40.805468z m0 0" p-id="4593" fill="#666666"></path></svg>