<?xml version="1.0" standalone="no"?><!DOCTYPE svg PUBLIC "-//W3C//DTD SVG 1.1//EN" "http://www.w3.org/Graphics/SVG/1.1/DTD/svg11.dtd"><svg t="1632881664087" class="icon" viewBox="0 0 1151 1024" version="1.1" xmlns="http://www.w3.org/2000/svg" p-id="2339" width="17.984375" height="16" xmlns:xlink="http://www.w3.org/1999/xlink"><defs><style type="text/css"></style></defs><path d="M423.159468 5.356449C587.52593 5.356449 720.824989 138.655507 720.824989 303.02197c0 109.118517-58.767897 204.61635-146.460619 256.497384 175.997609 57.084442 303.175011 222.369153 303.175011 417.343895 0 26.017038-21.119713 46.983709-46.983709 46.98371h-783.571963C20.966672 1023.846959 0 1002.727246 0 976.863249 0 789.234494 117.994919 629.000149 283.891795 566.253176 189.618293 516.36168 125.493947 417.190853 125.493947 303.02197 125.340906 138.655507 258.639964 5.356449 423.159468 5.356449z m15.610223 626.85757c-173.242864 0-316.642654 127.789568-341.129279 294.29861l-0.459124 3.519952h683.176805l-0.459124-3.519952C755.718428 761.840084 615.226424 634.968764 444.432222 632.214019h-5.662531zM423.159468 99.323868c-112.485428 0-203.698102 91.212674-203.698102 203.698102S310.67404 506.720072 423.159468 506.720072 626.85757 415.507398 626.85757 303.02197 535.644896 99.323868 423.159468 99.323868z m0 0" fill="#40210F" p-id="2340"></path><path d="M838.972949 0.765207c133.299058 24.0275 234.612465 144.318039 234.612464 281.290091 0 98.252578-49.126289 186.557465-125.034823 237.979375 134.676431 74.837244 203.392019 208.289344 203.392019 394.234644 0 26.017038-21.119713 46.983709-46.983709 46.983709-26.017038 0-46.983709-21.119713-46.983709-46.983709 0-188.547003-78.204155-300.267225-240.121955-346.638769-21.119713-5.968615-35.352563-26.017038-33.975191-47.901957-1.377373-24.180541 15.763264-45.300254 39.637722-49.126289C912.585862 456.675534 979.464953 376.481841 979.464953 282.055298c0-91.365715-68.562547-172.783739-157.173517-188.853086-25.557914-4.591242-42.545509-29.077866-37.954267-54.635779 4.591242-25.404872 29.077866-42.392467 54.63578-37.801226z m0 0" fill="#00CE9B" p-id="2341"></path></svg>