<?xml version="1.0" standalone="no"?><!DOCTYPE svg PUBLIC "-//W3C//DTD SVG 1.1//EN" "http://www.w3.org/Graphics/SVG/1.1/DTD/svg11.dtd"><svg t="1632813482742" class="icon" viewBox="0 0 1024 1024" version="1.1" xmlns="http://www.w3.org/2000/svg" p-id="6684" width="16" height="16" xmlns:xlink="http://www.w3.org/1999/xlink"><defs><style type="text/css"></style></defs><path d="M793.646349 865.796017c0 34.143633-27.654798 61.643935-61.643935 61.643935H287.980688c-33.989137-0.154496-61.643935-27.654798-61.643935-61.643935V211.50513h567.464092v654.290887zM349.470127 100.885938c0-3.398914 1.235969-6.643331 3.707906-8.960772 2.317441-2.317441 5.561859-3.707906 8.960772-3.707906h296.323476c3.398914 0 6.643331 1.235969 8.960773 3.707906 2.317441 2.317441 3.707906 5.561859 3.707906 8.960772v36.461075H349.470127V100.885938z m629.108026 36.461075H744.671092V100.885938c0-47.584792-38.624019-86.208811-86.208811-86.208811H362.138805c-47.430296 0.154496-85.899819 38.624019-86.208811 86.208811v36.461075H41.404949c-19.621002 1.235969-34.761617 17.458057-34.761618 37.079058s15.140616 35.84309 34.761618 37.233555h110.773687v654.136391c0 75.085094 60.871454 135.802052 135.802052 135.802052h444.021726c35.997586 0 70.604707-14.368135 96.09656-39.859988s39.859988-60.098974 39.859988-96.09656V211.50513h110.773687c9.887749 0 19.31201-3.862402 26.264333-10.814726s10.814725-16.376584 10.814726-26.264333c0.154496-9.887749-3.707906-19.466506-10.660229-26.418829-7.10682-7.10682-16.685576-10.814725-26.573326-10.660229zM509.991551 816.04828c9.887749 0 19.31201-3.862402 26.264333-10.969221 6.952323-6.952323 10.814725-16.53108 10.814726-26.264334V383.768256c0-13.286663-7.10682-25.491853-18.53953-32.135184-11.43271-6.643331-25.646349-6.643331-37.079058 0-11.43271 6.643331-18.539529 18.848521-18.53953 32.135184v395.046469c0 9.887749 3.862402 19.31201 10.814726 26.264334s16.376584 10.969221 26.264333 10.969221m-173.190103 0c9.887749 0 19.31201-3.862402 26.41883-10.969221 6.952323-6.952323 10.969221-16.53108 10.969221-26.264334V383.768256c0.926976-13.904647-5.870851-27.19131-17.767049-34.298129-11.896198-7.261316-26.882317-7.261316-38.624019 0-11.896198 7.261316-18.694025 20.393482-17.767049 34.298129v395.046469c0.308992 20.238986 16.53108 36.61557 36.770066 37.233555m346.380206 0c20.547978-0.154496 37.079059-16.685576 37.079058-37.233555V383.768256c0.926976-13.904647-5.870851-27.19131-17.767049-34.298129-11.896198-7.261316-26.882317-7.261316-38.624019 0-11.896198 7.261316-18.694025 20.393482-17.767049 34.298129v395.046469c0 9.887749 3.862402 19.31201 10.969222 26.264334 6.643331 6.952323 16.222088 10.969221 26.109837 10.969221" fill="#FFFFFF" p-id="6685"></path></svg>