<?xml version="1.0" standalone="no"?><!DOCTYPE svg PUBLIC "-//W3C//DTD SVG 1.1//EN" "http://www.w3.org/Graphics/SVG/1.1/DTD/svg11.dtd"><svg t="1632813432794" class="icon" viewBox="0 0 1028 1024" version="1.1" xmlns="http://www.w3.org/2000/svg" p-id="6069" width="16.0625" height="16" xmlns:xlink="http://www.w3.org/1999/xlink"><defs><style type="text/css"></style></defs><path d="M876.591691 149.847049C779.584017 53.245832 650.737232 0.135486 513.625827 0.135486c-137.111405 0-266.093676 53.110347-363.10135 149.711563C53.516803 246.312781 0 374.753109 0 511.322572 0 647.892035 53.381318 776.332363 150.524477 872.93358c97.007674 96.601217 225.854459 149.711564 363.10135 149.711564 137.111405 0 266.093676-53.110347 363.10135-149.711564C973.463879 776.332363 1026.980683 647.892035 1026.980683 511.322572c0-136.569463-53.245832-265.009791-150.388992-361.475523z m-106.220693 398.192115H550.206933V768.203228c0 20.322837-16.393755 36.716592-36.716592 36.716592-20.322837 0-36.716592-16.393755-36.716591-36.716592V548.039164H256.745171c-20.322837 0-36.716592-16.393755-36.716592-36.716592 0-20.322837 16.393755-36.716592 36.716592-36.716592H476.909235V254.577401c0-20.322837 16.393755-36.716592 36.716592-36.716591 20.322837 0 36.716592 16.393755 36.716592 36.716591v220.164065h220.028579c20.322837 0 36.716592 16.393755 36.716591 36.716592 0 20.187351-16.529241 36.581106-36.716591 36.581106z m0 0" p-id="6070" fill="#FFFFFF"></path></svg>