<?xml version="1.0" standalone="no"?><!DOCTYPE svg PUBLIC "-//W3C//DTD SVG 1.1//EN" "http://www.w3.org/Graphics/SVG/1.1/DTD/svg11.dtd"><svg t="1632813861211" class="icon" viewBox="0 0 1163 1024" version="1.1" xmlns="http://www.w3.org/2000/svg" p-id="8357" width="18.171875" height="16" xmlns:xlink="http://www.w3.org/1999/xlink"><defs><style type="text/css"></style></defs><path d="M898.494444 466.399098H621.590594v-77.018521c0-22.429377-18.141408-40.570784-40.570784-40.570785-22.429377 0-40.570784 18.141408-40.570784 40.570785v77.018521H264.534708c-70.421646 0-127.649541 57.227895-127.649541 127.649541v115.445321c0 22.429377 18.141408 40.570784 40.570784 40.570785 22.429377 0 40.570784-18.141408 40.570784-40.570785v-115.445321c0-25.727814 20.94508-46.672894 46.672895-46.672894h275.914317v141.502979c0 22.429377 18.141408 40.570784 40.570785 40.570785 22.429377 0 40.570784-18.141408 40.570784-40.570785v-141.502979h276.903849c25.727814 0 46.672894 20.94508 46.672895 46.672894v94.830085c0 22.429377 18.141408 40.570784 40.570784 40.570785 22.429377 0 40.570784-18.141408 40.570784-40.570785v-94.830085c-0.329844-70.421646-57.557739-127.649541-127.979384-127.649541z m0 0" fill="#FFFFFF" p-id="8358"></path><path d="M740.664197 386.741826H407.686906c-57.557739 0-104.230633-46.837816-104.230633-104.230633V104.230633C303.456273 46.837816 350.294089 0 407.686906 0h332.977291c57.557739 0 104.230633 46.837816 104.230633 104.230633v40.076019c0 22.429377-18.141408 40.570784-40.570784 40.570784-22.429377 0-40.570784-18.141408-40.570785-40.570784V104.230633c0-12.863907-10.390079-23.253986-23.253986-23.253986H407.686906c-12.863907 0-23.253986 10.390079-23.253986 23.253986v178.28056c0 12.863907 10.390079 23.253986 23.253986 23.253987h332.977291c7.091641 0 13.688517-3.133516 18.141408-8.74086 2.308906-2.968594 5.112579-7.751329 5.112578-14.513127 0-22.429377 18.141408-40.570784 40.570785-40.570784 22.429377 0 40.570784 18.141408 40.570784 40.570784 0 23.58383-8.081172 46.672894-22.759221 65.144146-19.955548 24.738283-49.971332 39.251409-81.636334 39.086487zM250.681269 1024H104.230633C46.837816 1024 0 977.162184 0 919.604445v-146.285714c0-57.557739 46.837816-104.230633 104.230633-104.230633H250.681269c57.557739 0 104.230633 46.837816 104.230633 104.230633v146.285714c0 57.557739-46.837816 104.395555-104.230633 104.395555zM104.230633 750.064745c-12.863907 0-23.253986 10.390079-23.253986 23.253986v146.285714c0 12.863907 10.390079 23.253986 23.253986 23.253986H250.681269c12.863907 0 23.253986-10.390079 23.253986-23.253986v-146.285714c0-12.863907-10.390079-23.253986-23.253986-23.253986H104.230633zM654.739894 1024h-146.285715c-57.557739 0-104.230633-46.837816-104.230633-104.230633V773.483653c0-57.557739 46.837816-104.230633 104.230633-104.230633H654.739894c57.557739 0 104.230633 46.837816 104.230633 104.230633v146.285714c0 57.392817-46.837816 104.230633-104.230633 104.230633z m-146.285715-273.935255c-12.863907 0-23.253986 10.390079-23.253986 23.253986v146.285714c0 12.863907 10.390079 23.253986 23.253986 23.253986H654.739894c12.863907 0 23.253986-10.390079 23.253986-23.253986v-146.285714c0-12.863907-10.390079-23.253986-23.253986-23.253986h-146.285715zM1058.798518 1024h-146.285714c-57.557739 0-104.230633-46.837816-104.230633-104.230633V773.483653c0-57.557739 46.837816-104.230633 104.230633-104.230633H1058.798518c57.557739 0 104.230633 46.837816 104.230633 104.230633v146.285714c0 57.392817-46.672894 104.230633-104.230633 104.230633z m-146.285714-273.935255c-12.863907 0-23.253986 10.390079-23.253986 23.253986v146.285714c0 12.863907 10.390079 23.253986 23.253986 23.253986H1058.798518c12.863907 0 23.253986-10.390079 23.253986-23.253986v-146.285714c0-12.863907-10.390079-23.253986-23.253986-23.253986h-146.285714z m0 0" fill="#FFFFFF" p-id="8359"></path></svg>