<?xml version="1.0" standalone="no"?><!DOCTYPE svg PUBLIC "-//W3C//DTD SVG 1.1//EN" "http://www.w3.org/Graphics/SVG/1.1/DTD/svg11.dtd"><svg t="1632813531622" class="icon" viewBox="0 0 1024 1024" version="1.1" xmlns="http://www.w3.org/2000/svg" p-id="7092" width="16" height="16" xmlns:xlink="http://www.w3.org/1999/xlink"><defs><style type="text/css"></style></defs><path d="M585.142857 0c23.714286 0 43.142857 18.857143 43.857143 42.571429S611.428571 86.285714 587.714286 87.714286l-2.571429 0.142857H102.428571c-7.428571 0-13.714286 5.571429-14.571428 12.857143l-0.142857 1.714285v819.142858c0 7.428571 5.571429 13.714286 12.857143 14.571428l1.714285 0.142857H921.428571c7.428571 0 13.714286-5.571429 14.571429-12.857143l0.142857-1.714285V44c0-23.714286 18.857143-43.142857 42.571429-43.857143s43.714286 17.571429 45.142857 41.285714l0.142857 2.571429v877.714286c0 55.142857-43.714286 100.428571-98.857143 102.285714H102.428571C47.142857 1024 2 980.285714 0 925.142857V102.428571C0 47.285714 43.714286 2 98.857143 0.142857h486.285714z m190.142857 0c24.285714 0 43.857143 19.714286 43.857143 43.857143v497.428571l-43.857143 73.142857-43.857143-73.142857V44c0-24.285714 19.714286-44 43.857143-44zM526.571429 351.142857c23.714286 0 43.142857 18.857143 43.857142 42.571429s-17.571429 43.714286-41.285714 45.142857l-2.571428 0.142857H204.857143c-23.714286 0-43.142857-18.857143-43.857143-42.571429s17.571429-43.714286 41.285714-45.142857l2.571429-0.142857h321.714286z m0-146.285714c23.714286 0 43.142857 18.857143 43.857142 42.571428s-17.571429 43.714286-41.285714 45.142858h-324.285714c-23.714286 0-43.142857-18.857143-43.857143-42.571429s17.571429-43.714286 41.285714-45.142857l2.571429-0.142857h321.714286z m0 0" fill="#40210F" p-id="7093"></path><path d="M336.428571 702.285714c40.428571 0 73.142857 32.714286 73.142858 73.142857 0 40.428571-32.714286 73.142857-73.142858 73.142858-40.428571 0-73.142857-32.714286-73.142857-73.142858 0-40.428571 32.714286-73.142857 73.142857-73.142857z m219.428572 0c40.428571 0 73.142857 32.714286 73.142857 73.142857 0 40.428571-32.714286 73.142857-73.142857 73.142858-40.428571 0-73.142857-32.714286-73.142857-73.142858 0-40.428571 32.714286-73.142857 73.142857-73.142857z m219.428571 0c40.428571 0 73.142857 32.714286 73.142857 73.142857 0 40.428571-32.714286 73.142857-73.142857 73.142858-40.428571 0-73.142857-32.714286-73.142857-73.142858 0-40.428571 32.714286-73.142857 73.142857-73.142857z m0 0" fill="#00CE9B" p-id="7094"></path></svg>