<?xml version="1.0" standalone="no"?><!DOCTYPE svg PUBLIC "-//W3C//DTD SVG 1.1//EN" "http://www.w3.org/Graphics/SVG/1.1/DTD/svg11.dtd"><svg t="1632907470329" class="icon" viewBox="0 0 1024 1024" version="1.1" xmlns="http://www.w3.org/2000/svg" p-id="2341" width="16" height="16" xmlns:xlink="http://www.w3.org/1999/xlink"><defs><style type="text/css"></style></defs><path d="M537.216 852.224c-9.088 0-20.48-2.304-29.568-6.784-18.304-11.264-31.872-29.568-31.872-52.352V370.56c0-38.656 18.176-75.008 47.616-99.968C714.368 118.4 896 147.84 966.528 168.32c29.568 9.088 49.92 36.352 49.92 65.92v499.968c0 18.176-9.088 36.352-22.784 47.616-15.872 11.264-34.048 15.872-52.352 11.264-174.976-47.616-308.992 13.568-372.608 52.352-8.832 4.48-20.096 6.784-31.488 6.784z m306.816-631.68c-75.008 0-172.672 20.48-274.944 104.576-13.568 11.264-22.784 29.568-22.784 47.616v404.48c75.008-43.136 218.112-99.968 402.176-54.528V234.24c-22.784-6.912-59.136-13.696-104.448-13.696z m0 0" fill="#00CE9B" p-id="2342"></path><path d="M485.888 856.704c-11.264 0-22.784-2.304-31.872-9.088C390.4 809.088 258.56 747.648 81.408 795.392c-18.176 4.48-36.352 0-52.352-11.264C15.488 772.736 6.4 756.736 6.4 736.384V236.416c0-31.872 20.48-59.136 49.92-65.92 70.528-20.48 252.288-49.92 440.832 104.576 29.568 25.088 47.616 61.44 47.616 99.968v422.528c0 22.784-11.264 40.832-31.872 52.352-6.528 4.608-15.744 6.784-27.008 6.784zM210.944 711.296c118.144 0 211.328 38.656 265.856 72.704V375.04c0-18.304-9.088-34.048-22.784-47.616C290.432 193.28 135.936 220.544 76.8 236.416v488.448c47.744-8.96 93.184-13.568 134.144-13.568z m0 0" fill="#40210F" p-id="2343"></path></svg>