<?xml version="1.0" standalone="no"?><!DOCTYPE svg PUBLIC "-//W3C//DTD SVG 1.1//EN" "http://www.w3.org/Graphics/SVG/1.1/DTD/svg11.dtd"><svg t="1632881689635" class="icon" viewBox="0 0 1094 1024" version="1.1" xmlns="http://www.w3.org/2000/svg" p-id="2508" width="17.09375" height="16" xmlns:xlink="http://www.w3.org/1999/xlink"><defs><style type="text/css"></style></defs><path d="M659.23203 126.285463c131.627255 0 238.463113 106.698889 238.463113 238.463113 0 90.262603-50.130672 168.882837-124.093958 209.288705 14.244781 3.698164 28.215624 8.218143 42.049498 13.559936 13.970843 5.478762 24.106553 17.942945 26.298057 32.872572 2.328474 14.792657-3.561195 29.859253-15.203564 39.173148-11.779338 9.450864-27.530779 11.916307-41.638591 6.437545-35.611953-13.833874-73.552379-20.956264-111.766743-20.819295-170.389496 0-308.591266 138.20177-308.591266 308.591265 0 23.284738-18.901729 42.049498-42.049498 42.049498-23.284738 0-42.049498-18.901729-42.049498-42.049498 0-175.731289 115.327939-324.479675 274.485973-374.610347-79.442048-38.625272-134.229667-120.258824-134.229668-214.493529-0.136969-131.764224 106.56192-238.463113 238.326145-238.463113zM378.719419 0c53.691867 0 104.781322 17.805976 146.282943 50.130672 18.216883 14.244781 21.504141 40.679807 7.25936 58.89669-14.244781 18.353852-40.542838 21.64111-58.896691 7.396329-26.982903-21.093233-60.40335-32.461664-94.645612-32.461664-85.194748 0-154.227148 69.0324-154.227149 154.227148 0 64.375453 39.857993 121.217608 98.617715 143.95447l3.972102 1.506659c9.724802 3.424226 17.395069 10.13571 22.188986 18.353853 11.779338 9.587833 17.395069 24.791398 14.792657 39.721024-2.602412 14.929626-13.01206 27.39381-27.25684 32.461664C186.140937 528.289619 84.098996 668.408956 84.098996 827.293052c0 23.284738-18.901729 42.049498-42.049498 42.049498-23.284738 0-42.049498-18.901729-42.049498-42.049498 0-167.376177 92.317139-317.905161 235.038887-398.579931-59.718505-45.062817-94.782581-115.464908-94.782582-190.386977 0-131.627255 106.698889-238.326144 238.463114-238.326144z m280.512611 210.384458c-85.194748 0-154.227148 69.0324-154.227149 154.227149 0 85.194748 69.0324 154.227148 154.227149 154.227148 85.194748 0 154.227148-69.0324 154.227148-154.227148 0-85.194748-69.0324-154.227148-154.227148-154.227149z m0 0" fill="#40210F" p-id="2509"></path><path d="M911.665986 659.23203c22.325955 0 40.679807 17.395069 42.049497 39.584054v100.672251H1051.922291c22.736862 0 41.501622 18.079914 42.049498 40.816776 0.684845 22.736862-16.847193 41.912529-39.584055 43.28222l-2.465443 0.136969h-98.206808v98.206807c0 22.736862-18.079914 41.364653-40.816776 42.049498s-41.912529-16.847193-43.282219-39.584055l-0.136969-2.465443v-98.206807h-98.206808c-22.736862 0-41.364653-18.079914-42.049498-40.816777s16.847193-41.912529 39.584055-43.282219l2.465443-0.136969h98.206808V701.281527c0.136969-23.284738 18.901729-42.049498 42.186467-42.049497z m0 0" fill="#00CE9B" p-id="2510"></path></svg>