<?xml version="1.0" standalone="no"?><!DOCTYPE svg PUBLIC "-//W3C//DTD SVG 1.1//EN" "http://www.w3.org/Graphics/SVG/1.1/DTD/svg11.dtd"><svg t="1632906337588" class="icon" viewBox="0 0 1024 1024" version="1.1" xmlns="http://www.w3.org/2000/svg" p-id="2885" width="16" height="16" xmlns:xlink="http://www.w3.org/1999/xlink"><defs><style type="text/css"></style></defs><path d="M512 1024C228.322421 1024 0 793.283081 0 512S230.716919 0 512 0 1024 230.716919 1024 512 793.283081 1024 512 1024z m0-951.883356c-242.830261 0-439.883356 197.053095-439.883356 439.883356s197.053095 439.883356 439.883356 439.883356c240.435763 0 439.883356-197.053095 439.883356-439.883356S752.435763 72.116644 512 72.116644z" fill="#40210F" p-id="2886"></path><path d="M692.291609 548.058322h-139.444291c-43.241816 0-79.300138-36.058322-79.300138-79.300138V302.833563c0-19.296836 16.761486-36.058322 36.058322-36.058322s36.058322 16.761486 36.058322 36.058322v165.924621c0 4.788996 2.394498 7.183494 7.183494 7.183494h139.444291c19.296836 0 36.058322 16.761486 36.058322 36.058322s-14.366988 36.058322-36.058322 36.058322z" fill="#00CE9B" p-id="2887"></path></svg>