<?xml version="1.0" standalone="no"?><!DOCTYPE svg PUBLIC "-//W3C//DTD SVG 1.1//EN" "http://www.w3.org/Graphics/SVG/1.1/DTD/svg11.dtd"><svg t="1634793853302" class="icon" viewBox="0 0 1251 1024" version="1.1" xmlns="http://www.w3.org/2000/svg" p-id="4394" width="19.546875" height="16" xmlns:xlink="http://www.w3.org/1999/xlink"><defs><style type="text/css"></style></defs><path d="M743.675869 534.580136c-147.41341 0-267.290068-119.876658-267.290068-267.290068C476.56938 119.876658 596.446038 0 743.675869 0c147.229831 0 267.290068 119.876658 267.290069 267.290068s-119.876658 267.290068-267.290069 267.290068z m0-467.941197c-110.697741 0-200.651129 89.953388-200.651129 200.651129s89.953388 200.651129 200.651129 200.65113 200.651129-89.953388 200.65113-200.65113-89.953388-200.651129-200.65113-200.651129z m0 0" fill="#00CE9B" p-id="4395"></path><path d="M281.242022 1023.816422c-18.357834 0-33.22768-14.869846-33.22768-33.227681 0.367157-287.667264 233.511653-520.628182 521.178917-520.995338 18.357834 0 33.22768 14.869846 33.22768 33.411258 0 18.357834-14.869846 33.22768-33.22768 33.22768-250.951596 0.183578-454.172822 203.404805-454.539978 454.3564 0 8.81176-3.487989 17.256364-9.729652 23.498028-6.241664 6.241664-14.869846 9.729652-23.681607 9.729653z m112.900681-521.729653c-124.282539 0-210.931517-96.562209-210.931516-234.796701 0.183578-129.606311 105.190391-234.796701 234.980279-234.796701 18.357834 0 33.411259 14.869846 33.411259 33.411258 0 18.357834-14.869846 33.411259-33.411259 33.411259-92.890642 0.183578-168.157763 75.267121-168.157762 168.157762 0 83.711725 44.609537 168.157763 144.292578 168.157763 17.623521 0.917892 31.575475 15.604159 31.575475 33.22768-0.183578 17.623521-13.951954 32.309788-31.759054 33.22768z m0 0" fill="#00CE9B" p-id="4396"></path><path d="M33.22768 865.939046c-18.357834 0-33.22768-14.869846-33.22768-33.22768 0-230.207243 172.012908-397.263535 409.196128-397.263535 18.357834 0 33.411259 14.869846 33.411258 33.411258 0 18.357834-14.869846 33.411259-33.411258 33.411259-201.752599 0-342.557189 135.847974-342.557189 330.624596 0 18.174256-14.869846 33.044102-33.411259 33.044102z m1184.631051 158.060954c-17.439943 0-31.942632-13.401219-33.22768-30.841162-12.299749-174.03227-123.731804-325.300825-286.198638-388.818931-11.014701-4.40588-18.908569-14.319111-20.744353-26.068125-1.652205-11.749014 2.937253-23.498028 12.299749-30.841162s21.845823-9.178917 32.860524-4.956615c186.14844 72.697024 313.918967 246.178559 328.0545 445.728218 0.734313 8.81176-2.20294 17.439943-7.893869 24.232341-5.690929 6.60882-13.951954 10.831122-22.763715 11.565436h-2.386518z m0 0" fill="#00CE9B" p-id="4397"></path></svg>