<?xml version="1.0" standalone="no"?><!DOCTYPE svg PUBLIC "-//W3C//DTD SVG 1.1//EN" "http://www.w3.org/Graphics/SVG/1.1/DTD/svg11.dtd"><svg t="1634793975783" class="icon" viewBox="0 0 1024 1024" version="1.1" xmlns="http://www.w3.org/2000/svg" p-id="5003" width="16" height="16" xmlns:xlink="http://www.w3.org/1999/xlink"><defs><style type="text/css"></style></defs><path d="M504.95334 441.017791c0 5.499832-0.859349 10.999664-2.578046 16.327627L160.010742 116.527694c-12.890232-8.077878-29.561598-6.187311-40.217523 4.812353-10.484055 10.999664-12.030883 27.8429-3.437395 40.389392L457.173548 502.547163c-5.327962 1.718698-10.827795 2.578046-16.327627 2.578047h-160.010741c-17.702585 0-31.967774 14.26519-31.967775 31.967774s14.26519 31.967774 31.967775 31.967775h160.010741c34.030211 0 66.513595-13.405841 90.575361-37.467607s37.467607-56.545149 37.467607-90.575361v-160.010742c0-17.702585-14.26519-31.967774-31.967775-31.967774s-31.967774 14.26519-31.967774 31.967774v160.010742z m0 0" fill="#333333" p-id="5004"></path><path d="M31.967774 351.989258c-8.421618 0-16.671366 3.437395-22.686807 9.452837C3.437395 367.285666 0 375.535415 0 383.957033v512C0 929.987244 13.405841 962.470628 37.467607 986.532393s56.545149 37.467607 90.57536 37.467607h767.914066c34.030211 0 66.513595-13.405841 90.57536-37.467607s37.467607-56.545149 37.467607-90.57536V128.042967c0-70.638469-57.232628-128.042967-128.042967-128.042967H383.957033c-17.702585 0-31.967774 14.26519-31.967775 31.967774s14.26519 31.967774 31.967775 31.967775h512c17.015106 0 33.170863 6.70292 45.201745 18.733803s18.733803 28.35851 18.733803 45.201746v767.914065c0 35.40517-28.702249 63.935549-63.935548 63.935549H128.042967c-35.40517 0-63.935549-28.702249-63.935548-63.935549V383.957033c0-8.421618-3.437395-16.671366-9.452837-22.686808-6.015441-5.843572-14.09332-9.280967-22.686808-9.280967z m0 0" fill="#333333" p-id="5005"></path></svg>