<?xml version="1.0" standalone="no"?><!DOCTYPE svg PUBLIC "-//W3C//DTD SVG 1.1//EN" "http://www.w3.org/Graphics/SVG/1.1/DTD/svg11.dtd"><svg t="1632813451834" class="icon" viewBox="0 0 1024 1024" version="1.1" xmlns="http://www.w3.org/2000/svg" p-id="6273" width="16" height="16" xmlns:xlink="http://www.w3.org/1999/xlink"><defs><style type="text/css"></style></defs><path d="M478.165359 949.223899C216.449004 949.223899 3.55341 736.328304 3.55341 474.611949S216.449004 0 478.165359 0s474.611949 212.895594 474.611949 474.611949-215.676524 474.611949-474.611949 474.61195z m0-862.860592c-212.895594 0-388.248642 175.507544-388.248642 388.248642s175.507544 388.248642 388.248642 388.248642c212.895594 0 388.248642-175.507544 388.248642-388.248642S691.060954 86.363307 478.165359 86.363307z m0 0" fill="#FFFFFF" p-id="6274"></path><path d="M978.732649 1024c-11.43271 0-23.019916-2.935425-31.671695-11.43271l-186.940254-186.940253c-17.303561-17.303561-17.303561-43.104406 0-60.407966 17.303561-17.303561 43.104406-17.303561 60.407966 0l186.940254 186.940253c17.303561 17.303561 17.303561 43.104406 0 60.407966-5.716355 5.716355-17.303561 11.43271-28.736271 11.43271z m0 0" fill="#FFFFFF" p-id="6275"></path></svg>