<?xml version="1.0" standalone="no"?><!DOCTYPE svg PUBLIC "-//W3C//DTD SVG 1.1//EN" "http://www.w3.org/Graphics/SVG/1.1/DTD/svg11.dtd"><svg t="1632813623434" class="icon" viewBox="0 0 1024 1024" version="1.1" xmlns="http://www.w3.org/2000/svg" p-id="7910" width="16" height="16" xmlns:xlink="http://www.w3.org/1999/xlink"><defs><style type="text/css"></style></defs><path d="M495.333333 386.666667H256.4c-22 0-39.733333 17.866667-39.733333 39.733333 0 22 17.866667 39.733333 39.733333 39.733333h238.933333c22 0 39.733333-17.866667 39.733334-39.733333 0.133333-22-17.733333-39.733333-39.733334-39.733333z m119.866667 238.933333H256c-21.733333 0-39.333333 17.6-39.333333 39.333333v0.8c0 21.733333 17.6 39.333333 39.333333 39.333334h359.2c21.733333 0 39.333333-17.6 39.333333-39.333334v-0.8c0.133333-21.733333-17.466667-39.333333-39.333333-39.333333z m0 0" fill="#40210F" p-id="7911"></path><path d="M754.266667 585.6V944H117.066667V147.733333h278.666666c22 0 39.733333-17.866667 39.733334-39.733333 0-22-17.866667-39.733333-39.733334-39.733333h-278.666666C73.066667 68.133333 37.333333 103.733333 37.333333 147.733333v796.533334c0 44 35.6 79.733333 79.733334 79.733333h637.066666c44 0 79.733333-35.6 79.733334-79.733333V585.866667c0-22-17.866667-39.733333-39.733334-39.733334-22.133333-0.266667-39.866667 17.6-39.866666 39.466667z m0 0" fill="#40210F" p-id="7912"></path><path d="M928.933333 173.333333H813.333333V57.733333C813.333333 25.866667 787.466667 0 755.6 0s-57.733333 25.866667-57.733333 57.733333V173.333333h-115.6c-31.866667 0-57.733333 25.866667-57.733334 57.733334s25.866667 57.733333 57.733334 57.733333h115.6v115.6c0 31.866667 25.866667 57.733333 57.733333 57.733333s57.733333-25.866667 57.733333-57.733333v-115.6h115.6c31.866667 0 57.733333-25.866667 57.733334-57.733333-0.133333-31.866667-25.866667-57.733333-57.733334-57.733334z m0 0" fill="#00CE9B" p-id="7913"></path></svg>