<?xml version="1.0" standalone="no"?><!DOCTYPE svg PUBLIC "-//W3C//DTD SVG 1.1//EN" "http://www.w3.org/Graphics/SVG/1.1/DTD/svg11.dtd"><svg t="1634795185318" class="icon" viewBox="0 0 1024 1024" version="1.1" xmlns="http://www.w3.org/2000/svg" p-id="2365" width="16" height="16" xmlns:xlink="http://www.w3.org/1999/xlink"><defs><style type="text/css"></style></defs><path d="M920.369884 409.514178H613.69912V102.986451c0-56.356474-45.771756-102.12823-102.12823-102.128231-56.356474 0-102.12823 45.771756-102.12823 102.128231v306.527727H102.771896C46.415421 409.514178 0.643665 455.285934 0.643665 511.785445c0 56.356474 45.771756 102.12823 102.128231 102.12823h306.527727v306.527727c0 56.356474 45.771756 102.12823 102.12823 102.128231 56.356474 0 102.12823-45.771756 102.12823-102.128231V613.913675H920.369884c56.356474 0 102.12823-45.771756 102.12823-102.12823 0-56.499511-45.771756-102.271267-102.12823-102.271267z m0 0" p-id="2366" fill="#ffffff"></path></svg>