<?xml version="1.0" standalone="no"?><!DOCTYPE svg PUBLIC "-//W3C//DTD SVG 1.1//EN" "http://www.w3.org/Graphics/SVG/1.1/DTD/svg11.dtd"><svg t="1632813590406" class="icon" viewBox="0 0 1024 1024" version="1.1" xmlns="http://www.w3.org/2000/svg" p-id="7465" width="16" height="16" xmlns:xlink="http://www.w3.org/1999/xlink"><defs><style type="text/css"></style></defs><path d="M555.357492 0c24.211771 0 47.502442 9.342585 65.134926 26.053971l306.989463 292.515034c18.685171 17.764071 29.212028 42.502185 29.212028 68.292984v542.791056c0 25.001285-10.000514 48.949884-27.632999 66.713956-17.632485 17.632485-41.71267 27.632999-66.713955 27.632999H161.653045c-25.001285 0-48.949884-9.868928-66.713955-27.632999-17.632485-17.632485-27.632999-41.581085-27.632999-66.58237V94.346955c0-25.001285 10.000514-48.949884 27.632999-66.713956C112.571575 10.000514 136.65176 0 161.653045 0h393.704447z m-23.159085 80.793626H161.653045c-7.500386 0-13.421742 6.052943-13.421742 13.421743v835.437676c0 7.500386 6.052943 13.421742 13.421742 13.421743h700.69391c7.500386 0 13.421742-6.052943 13.421742-13.421743V417.653045H626.545361c-50.792084 0-92.504755-40.265227-94.215369-91.057311V80.793626zM829.318941 336.859419L612.992033 130.664611v192.64148c0 6.842457 5.131843 12.632228 11.842714 13.421742l1.579028 0.131586h202.905166z m0 0" fill="#40210F" p-id="7466"></path><path d="M606.281162 781.487535c21.843228 0 39.738885 17.369314 40.396813 39.212542s-16.185042 40.265227-38.028271 41.581085l-2.368542 0.131585H282.843485c-21.843228 0-39.87047-17.369314-40.396813-39.212541-0.657929-21.843228 16.185042-40.265227 38.02827-41.581085l2.368543-0.131586h323.437677zM741.024929 619.768697c21.843228 0 39.87047 17.369314 40.396813 39.212542 0.657929 21.843228-16.185042 40.265227-38.02827 41.581084h-460.549987c-21.843228 0-39.87047-17.369314-40.396813-39.212541-0.657929-21.843228 16.185042-40.265227 38.02827-41.581085l2.368543-0.131586H741.024929zM525.487535 458.181444c21.843228 0 39.87047 17.369314 40.396813 39.212542 0.657929 21.843228-16.185042 40.265227-38.02827 41.581085l-2.368543 0.131585H282.843485c-21.843228 0-39.87047-17.369314-40.396813-39.212541-0.657929-21.843228 16.185042-40.265227 38.02827-41.581085l2.368543-0.131586h242.64405z m0 0" fill="#00CE9B" p-id="7467"></path></svg>