<?xml version="1.0" standalone="no"?><!DOCTYPE svg PUBLIC "-//W3C//DTD SVG 1.1//EN" "http://www.w3.org/Graphics/SVG/1.1/DTD/svg11.dtd"><svg t="1632813904777" class="icon" viewBox="0 0 1134 1024" version="1.1" xmlns="http://www.w3.org/2000/svg" p-id="8598" width="17.71875" height="16" xmlns:xlink="http://www.w3.org/1999/xlink"><defs><style type="text/css"></style></defs><path d="M1110.927163 547.392891L585.975805 791.267931c-11.194829 6.027985-24.456395 6.372441-35.995681 0.86114L23.650942 547.220662C10.733831 541.88159 1.950196 529.825621 0.400143 516.04737c-1.377825-13.950479 4.994616-27.384274 16.533901-35.306768 11.539285-7.750266 26.523133-8.783635 38.751331-2.238966L566.858482 716.52092l511.689791-237.847056c12.228198-5.855757 26.695361-4.477932 37.89019 3.272335s17.222814 20.839604 16.189445 34.273399c-1.205597 13.433795-9.472547 25.317536-21.700745 31.173293zM55.685375 706.187232l511.173107 238.019283 511.689791-237.847055c12.400426-6.372441 27.212045-5.5113 38.751331 2.238966 11.539285 7.750266 17.911726 21.356289 16.533901 35.306767-1.377825 13.950479-10.333688 25.83422-23.078571 31.173293L585.803577 1019.297982c-11.194829 6.027985-24.456395 6.200213-35.995681 0.861141L23.650942 774.906258C10.733831 769.567186 1.950196 757.511216 0.400143 743.732965c-1.377825-13.950479 4.994616-27.384274 16.533901-35.306768 11.539285-7.750266 26.523133-8.611407 38.751331-2.238965z m0 0" fill="#40210F" p-id="8599"></path><path d="M1134.005733 284.400527v-2.411194c-0.516684-7.40581-3.100106-14.467163-7.750266-20.150692l-0.688913-0.86114c-3.961247-4.994616-8.955863-9.128091-14.639391-11.883742L585.631349 4.702035c-11.194829-6.027985-24.628623-6.200213-35.995681-0.861141L23.306485 249.093759C13.833938 253.227235 6.428128 260.805273 2.639109 270.450048c-3.789019 9.644776-3.444563 20.32292 0.688913 29.795468 3.100106 6.544669 7.922494 12.05597 14.122707 15.67276 1.894509 1.377825 3.961247 2.583422 6.200213 3.616791l526.156954 244.908409c11.539285 5.339072 24.800852 5.166844 35.995681-0.861141L1110.927163 319.535067c5.5113-2.411194 10.333688-6.200213 14.122707-10.678144l1.205597-1.377826c4.65016-5.855757 7.40581-12.91711 7.922494-20.495148-0.344456-1.377825-0.172228-1.894509-0.172228-2.583422zM566.858482 488.835324l-439.181746-204.434797L566.686254 79.793502l440.042886 204.607025-439.870658 204.434797z m0 0" fill="#00CE9B" p-id="8600"></path></svg>