<?xml version="1.0" standalone="no"?><!DOCTYPE svg PUBLIC "-//W3C//DTD SVG 1.1//EN" "http://www.w3.org/Graphics/SVG/1.1/DTD/svg11.dtd"><svg t="1632813832059" class="icon" viewBox="0 0 1024 1024" version="1.1" xmlns="http://www.w3.org/2000/svg" p-id="8116" width="16" height="16" xmlns:xlink="http://www.w3.org/1999/xlink"><defs><style type="text/css"></style></defs><path d="M772.898196 0H250.839535C154.503066 0 76.158849 79.76093 76.158849 177.797454v668.405092c0 98.036525 78.344217 177.797454 174.680686 177.797454h385.204206c8.925291 0 17.567239-3.541782 24.084117-9.633647l276.825678-264.500277c6.800221-6.516879 10.767017-15.725512 10.767017-25.217487v-546.851135C947.720553 79.76093 869.234665 0 772.898196 0zM145.861118 846.060874V177.797454c0-59.643608 47.176536-108.095185 105.120088-108.095185h522.058661c57.943553 0 105.120089 48.451577 105.120089 108.095185v510.158274H722.888234c-64.885445 0-117.728832 53.551743-117.728832 119.428887v146.913116h-354.178196c-58.085224-0.141671-105.120089-48.593248-105.120088-108.236857zM674.72 903.862756v-96.619812c0-27.484228 21.534034-49.86829 48.168234-49.86829h105.120089L757.88104 824.52684l-83.16104 79.335916z m0 0" fill="#462817" p-id="8117"></path><path d="M693.137266 363.386829H334.142247c-19.267294 0-34.851134-15.583841-34.851135-34.851134 0-19.267294 15.583841-34.851134 34.851135-34.851135h358.995019c19.267294 0 34.851134 15.583841 34.851135 34.851135 0 19.267294-15.583841 34.851134-34.851135 34.851134z m0 171.563918H334.142247c-19.267294 0-34.851134-15.583841-34.851135-34.851134 0-19.267294 15.583841-34.851134 34.851135-34.851135h358.995019c19.267294 0 34.851134 15.583841 34.851135 34.851135 0 19.267294-15.583841 34.851134-34.851135 34.851134zM476.663553 715.581627H334.142247c-19.267294 0-34.851134-15.583841-34.851135-34.851134 0-19.267294 15.583841-34.851134 34.851135-34.851135h142.379634c19.267294 0 34.851134 15.583841 34.851135 34.851135 0 19.267294-15.442169 34.851134-34.709463 34.851134z m0 0" fill="#00CE9B" p-id="8118"></path></svg>