<?xml version="1.0" standalone="no"?><!DOCTYPE svg PUBLIC "-//W3C//DTD SVG 1.1//EN" "http://www.w3.org/Graphics/SVG/1.1/DTD/svg11.dtd"><svg t="1632813552615" class="icon" viewBox="0 0 1251 1024" version="1.1" xmlns="http://www.w3.org/2000/svg" p-id="7261" width="19.546875" height="16" xmlns:xlink="http://www.w3.org/1999/xlink"><defs><style type="text/css"></style></defs><path d="M1187.201147 49.566153H878.422374c-66.271782 0-131.074937 19.092148-186.882754 54.889924l-65.904625 42.223019-65.904626-42.406597C503.922553 68.474722 439.119398 49.566153 372.847616 49.566153H64.068842c-23.865185 0-43.140911 19.275726-43.140911 43.14091v766.806741c0 23.865185 19.275726 43.140911 43.140911 43.140911h308.962352c66.271782 0 131.074937 19.092148 186.882754 54.889925l60.030118 38.551452c1.652205 1.10147 3.671567 1.652205 5.874507 1.652205 2.019362 0 4.222302-0.550735 5.874507-1.652205l59.84654-38.551452c55.807816-35.797777 120.79455-54.889925 187.066332-54.889925h308.962352c23.865185 0 43.140911-19.275726 43.140911-43.140911V92.890642c-0.367157-23.865185-19.642883-43.324489-43.508068-43.324489zM372.847616 805.72535H118.040875v-659.046254h254.806741c47.730369 0 94.17569 13.584797 134.379347 39.469344l65.904625 42.223019 9.362496 6.058086v623.799211c-64.435999-34.696307-136.398709-52.870563-209.646468-52.503406z m760.381498 0H878.422374c-73.431337 0-145.21047 17.990678-209.46289 52.686984V234.613123l9.362495-6.058085 65.904626-42.406598c40.020079-25.700968 86.648978-39.469344 134.379347-39.285765h254.806741v658.862675zM470.327716 319.609896H219.37612c-5.140194 0-9.546074 4.589459-9.546073 10.096809v60.764432c0 5.50735 4.40588 10.096809 9.546073 10.096809h250.768018c5.140194 0 9.546074-4.589459 9.546074-10.096809v-60.764432c0.183578-5.323772-4.038724-9.913231-9.362496-10.096809z m301.068483 10.096809v60.764432c0 5.50735 4.40588 10.096809 9.546074 10.096809H1031.71029c5.140194 0 9.546074-4.589459 9.546074-10.096809v-60.764432c0-5.50735-4.40588-10.096809-9.546074-10.096809H780.942273c-5.140194 0-9.546074 4.589459-9.546074 10.096809z m-301.068483 178.805306H219.37612c-5.140194 0-9.546074 4.589459-9.546073 10.096809v60.764432c0 5.690929 4.40588 10.280387 9.546073 10.280387h250.768018c5.140194 0 9.546074-4.589459 9.546074-10.280387v-60.764432c0.183578-5.323772-4.038724-9.913231-9.362496-10.096809z m561.566153 0H780.942273c-5.140194 0-9.546074 4.589459-9.546074 10.096809v60.764432c0 5.690929 4.40588 10.280387 9.546074 10.280387H1031.71029c5.140194 0 9.546074-4.589459 9.546074-10.280387v-60.764432c0.183578-5.323772-4.038724-9.913231-9.362495-10.096809z m0 0" fill="#00CE9B" p-id="7262"></path></svg>