<?xml version="1.0" standalone="no"?><!DOCTYPE svg PUBLIC "-//W3C//DTD SVG 1.1//EN" "http://www.w3.org/Graphics/SVG/1.1/DTD/svg11.dtd"><svg t="1632813464356" class="icon" viewBox="0 0 1024 1024" version="1.1" xmlns="http://www.w3.org/2000/svg" p-id="6478" width="16" height="16" xmlns:xlink="http://www.w3.org/1999/xlink"><defs><style type="text/css"></style></defs><path d="M703.4472 192.731123H129.1056C58.775146 192.731123 1.283923 250.222346 1.283923 320.5528v574.3416c0 70.330454 57.491223 127.821677 127.821677 127.821677h574.3416c70.330454 0 127.821677-57.491223 127.821677-127.821677V320.5528c-0.998607-71.186403-57.633881-127.821677-127.821677-127.821677zM767.358038 893.895793c0 35.664531-28.246308 63.910839-63.910838 63.910838H129.1056c-35.664531 0-63.910839-28.246308-63.910838-63.910838V319.696851c0-35.664531 28.246308-63.910839 63.910838-63.910838h574.3416c35.664531 0 63.910839 28.246308 63.910838 63.910838v574.198942z m0 0" p-id="6479" fill="#FFFFFF"></path><path d="M193.016439 420.128169h446.519922v63.910839h-446.519922v-63.910839z m0 155.212037h446.519922v63.910839h-446.519922v-63.910839z m0 154.21343H447.803845v63.910839H193.016439v-63.910839z m0 0" p-id="6480" fill="#FFFFFF"></path><path d="M894.181109 0.998607H319.982168c-70.330454 0-127.821677 57.491223-127.821678 127.821677h63.910839c0-35.664531 28.246308-63.910839 63.910839-63.910838H894.323767c35.664531 0 63.910839 28.246308 63.910839 63.910838v574.3416c0 35.664531-28.246308 63.910839-63.910839 63.910838v63.910839c70.330454 0 127.821677-57.491223 127.821677-127.821677V128.820284C1022.002786 57.633881 964.511563 0.998607 894.181109 0.998607z m0 0" p-id="6481" fill="#FFFFFF"></path></svg>